%TF.GenerationSoftware,KiCad,Pcbnew,9.0.2*%
%TF.CreationDate,2025-08-06T23:35:29+02:00*%
%TF.ProjectId,Moto_HMI_v001,4d6f746f-5f48-44d4-995f-763030312e6b,rev?*%
%TF.SameCoordinates,Original*%
%TF.FileFunction,Drillmap*%
%TF.FilePolarity,Positive*%
%FSLAX45Y45*%
G04 Gerber Fmt 4.5, Leading zero omitted, Abs format (unit mm)*
G04 Created by KiCad (PCBNEW 9.0.2) date 2025-08-06 23:35:29*
%MOMM*%
%LPD*%
G01*
G04 APERTURE LIST*
%ADD10C,0.038100*%
%ADD11C,0.200000*%
%ADD12C,0.300000*%
G04 APERTURE END LIST*
D10*
X9400000Y-14180000D02*
G75*
G02*
X8900000Y-13680000I0J500000D01*
G01*
X21500000Y-5100000D02*
G75*
G02*
X22000000Y-5600000I0J-500000D01*
G01*
X8900000Y-13680000D02*
X8900000Y-5600000D01*
X8900000Y-5600000D02*
G75*
G02*
X9400000Y-5100000I500000J0D01*
G01*
X21500000Y-14180000D02*
X9400000Y-14180000D01*
X22000000Y-5600000D02*
X22000000Y-13680000D01*
X9400000Y-5100000D02*
X21500000Y-5100000D01*
X22000000Y-13680000D02*
G75*
G02*
X21500000Y-14180000I-500000J0D01*
G01*
D11*
D12*
X9250000Y-5450000D02*
X9550000Y-5750000D01*
X9550000Y-5450000D02*
X9250000Y-5750000D01*
X9250000Y-13550000D02*
X9550000Y-13850000D01*
X9550000Y-13550000D02*
X9250000Y-13850000D01*
X18250000Y-6430000D02*
X18550000Y-6730000D01*
X18550000Y-6430000D02*
X18250000Y-6730000D01*
X18250000Y-8430000D02*
X18550000Y-8730000D01*
X18550000Y-8430000D02*
X18250000Y-8730000D01*
X18250000Y-10428000D02*
X18550000Y-10728000D01*
X18550000Y-10428000D02*
X18250000Y-10728000D01*
X18250000Y-12428000D02*
X18550000Y-12728000D01*
X18550000Y-12428000D02*
X18250000Y-12728000D01*
X20250000Y-6430000D02*
X20550000Y-6730000D01*
X20550000Y-6430000D02*
X20250000Y-6730000D01*
X20250000Y-8430000D02*
X20550000Y-8730000D01*
X20550000Y-8430000D02*
X20250000Y-8730000D01*
X20250000Y-10428000D02*
X20550000Y-10728000D01*
X20550000Y-10428000D02*
X20250000Y-10728000D01*
X20250000Y-12428000D02*
X20550000Y-12728000D01*
X20550000Y-12428000D02*
X20250000Y-12728000D01*
X21350000Y-5450000D02*
X21650000Y-5750000D01*
X21650000Y-5450000D02*
X21350000Y-5750000D01*
X21350000Y-13550000D02*
X21650000Y-13850000D01*
X21650000Y-13550000D02*
X21350000Y-13850000D01*
D11*
X9158872Y-14493389D02*
X9158872Y-14293389D01*
X9158872Y-14293389D02*
X9206491Y-14293389D01*
X9206491Y-14293389D02*
X9235062Y-14302913D01*
X9235062Y-14302913D02*
X9254110Y-14321960D01*
X9254110Y-14321960D02*
X9263634Y-14341008D01*
X9263634Y-14341008D02*
X9273158Y-14379103D01*
X9273158Y-14379103D02*
X9273158Y-14407674D01*
X9273158Y-14407674D02*
X9263634Y-14445770D01*
X9263634Y-14445770D02*
X9254110Y-14464817D01*
X9254110Y-14464817D02*
X9235062Y-14483865D01*
X9235062Y-14483865D02*
X9206491Y-14493389D01*
X9206491Y-14493389D02*
X9158872Y-14493389D01*
X9358872Y-14493389D02*
X9358872Y-14360055D01*
X9358872Y-14398151D02*
X9368396Y-14379103D01*
X9368396Y-14379103D02*
X9377919Y-14369579D01*
X9377919Y-14369579D02*
X9396967Y-14360055D01*
X9396967Y-14360055D02*
X9416015Y-14360055D01*
X9482681Y-14493389D02*
X9482681Y-14360055D01*
X9482681Y-14293389D02*
X9473158Y-14302913D01*
X9473158Y-14302913D02*
X9482681Y-14312436D01*
X9482681Y-14312436D02*
X9492205Y-14302913D01*
X9492205Y-14302913D02*
X9482681Y-14293389D01*
X9482681Y-14293389D02*
X9482681Y-14312436D01*
X9606491Y-14493389D02*
X9587443Y-14483865D01*
X9587443Y-14483865D02*
X9577919Y-14464817D01*
X9577919Y-14464817D02*
X9577919Y-14293389D01*
X9711253Y-14493389D02*
X9692205Y-14483865D01*
X9692205Y-14483865D02*
X9682681Y-14464817D01*
X9682681Y-14464817D02*
X9682681Y-14293389D01*
X9939824Y-14493389D02*
X9939824Y-14293389D01*
X9939824Y-14293389D02*
X10006491Y-14436246D01*
X10006491Y-14436246D02*
X10073158Y-14293389D01*
X10073158Y-14293389D02*
X10073158Y-14493389D01*
X10254110Y-14493389D02*
X10254110Y-14388627D01*
X10254110Y-14388627D02*
X10244586Y-14369579D01*
X10244586Y-14369579D02*
X10225539Y-14360055D01*
X10225539Y-14360055D02*
X10187443Y-14360055D01*
X10187443Y-14360055D02*
X10168396Y-14369579D01*
X10254110Y-14483865D02*
X10235062Y-14493389D01*
X10235062Y-14493389D02*
X10187443Y-14493389D01*
X10187443Y-14493389D02*
X10168396Y-14483865D01*
X10168396Y-14483865D02*
X10158872Y-14464817D01*
X10158872Y-14464817D02*
X10158872Y-14445770D01*
X10158872Y-14445770D02*
X10168396Y-14426722D01*
X10168396Y-14426722D02*
X10187443Y-14417198D01*
X10187443Y-14417198D02*
X10235062Y-14417198D01*
X10235062Y-14417198D02*
X10254110Y-14407674D01*
X10349348Y-14360055D02*
X10349348Y-14560055D01*
X10349348Y-14369579D02*
X10368396Y-14360055D01*
X10368396Y-14360055D02*
X10406491Y-14360055D01*
X10406491Y-14360055D02*
X10425539Y-14369579D01*
X10425539Y-14369579D02*
X10435062Y-14379103D01*
X10435062Y-14379103D02*
X10444586Y-14398151D01*
X10444586Y-14398151D02*
X10444586Y-14455293D01*
X10444586Y-14455293D02*
X10435062Y-14474341D01*
X10435062Y-14474341D02*
X10425539Y-14483865D01*
X10425539Y-14483865D02*
X10406491Y-14493389D01*
X10406491Y-14493389D02*
X10368396Y-14493389D01*
X10368396Y-14493389D02*
X10349348Y-14483865D01*
X10530300Y-14474341D02*
X10539824Y-14483865D01*
X10539824Y-14483865D02*
X10530300Y-14493389D01*
X10530300Y-14493389D02*
X10520777Y-14483865D01*
X10520777Y-14483865D02*
X10530300Y-14474341D01*
X10530300Y-14474341D02*
X10530300Y-14493389D01*
X10530300Y-14369579D02*
X10539824Y-14379103D01*
X10539824Y-14379103D02*
X10530300Y-14388627D01*
X10530300Y-14388627D02*
X10520777Y-14379103D01*
X10520777Y-14379103D02*
X10530300Y-14369579D01*
X10530300Y-14369579D02*
X10530300Y-14388627D01*
X8698095Y-14721905D02*
X8898095Y-14921905D01*
X8898095Y-14721905D02*
X8698095Y-14921905D01*
X9139824Y-14713389D02*
X9263634Y-14713389D01*
X9263634Y-14713389D02*
X9196967Y-14789579D01*
X9196967Y-14789579D02*
X9225539Y-14789579D01*
X9225539Y-14789579D02*
X9244586Y-14799103D01*
X9244586Y-14799103D02*
X9254110Y-14808627D01*
X9254110Y-14808627D02*
X9263634Y-14827674D01*
X9263634Y-14827674D02*
X9263634Y-14875293D01*
X9263634Y-14875293D02*
X9254110Y-14894341D01*
X9254110Y-14894341D02*
X9244586Y-14903865D01*
X9244586Y-14903865D02*
X9225539Y-14913389D01*
X9225539Y-14913389D02*
X9168396Y-14913389D01*
X9168396Y-14913389D02*
X9149348Y-14903865D01*
X9149348Y-14903865D02*
X9139824Y-14894341D01*
X9349348Y-14894341D02*
X9358872Y-14903865D01*
X9358872Y-14903865D02*
X9349348Y-14913389D01*
X9349348Y-14913389D02*
X9339824Y-14903865D01*
X9339824Y-14903865D02*
X9349348Y-14894341D01*
X9349348Y-14894341D02*
X9349348Y-14913389D01*
X9482681Y-14713389D02*
X9501729Y-14713389D01*
X9501729Y-14713389D02*
X9520777Y-14722913D01*
X9520777Y-14722913D02*
X9530300Y-14732436D01*
X9530300Y-14732436D02*
X9539824Y-14751484D01*
X9539824Y-14751484D02*
X9549348Y-14789579D01*
X9549348Y-14789579D02*
X9549348Y-14837198D01*
X9549348Y-14837198D02*
X9539824Y-14875293D01*
X9539824Y-14875293D02*
X9530300Y-14894341D01*
X9530300Y-14894341D02*
X9520777Y-14903865D01*
X9520777Y-14903865D02*
X9501729Y-14913389D01*
X9501729Y-14913389D02*
X9482681Y-14913389D01*
X9482681Y-14913389D02*
X9463634Y-14903865D01*
X9463634Y-14903865D02*
X9454110Y-14894341D01*
X9454110Y-14894341D02*
X9444586Y-14875293D01*
X9444586Y-14875293D02*
X9435062Y-14837198D01*
X9435062Y-14837198D02*
X9435062Y-14789579D01*
X9435062Y-14789579D02*
X9444586Y-14751484D01*
X9444586Y-14751484D02*
X9454110Y-14732436D01*
X9454110Y-14732436D02*
X9463634Y-14722913D01*
X9463634Y-14722913D02*
X9482681Y-14713389D01*
X9673158Y-14713389D02*
X9692205Y-14713389D01*
X9692205Y-14713389D02*
X9711253Y-14722913D01*
X9711253Y-14722913D02*
X9720777Y-14732436D01*
X9720777Y-14732436D02*
X9730300Y-14751484D01*
X9730300Y-14751484D02*
X9739824Y-14789579D01*
X9739824Y-14789579D02*
X9739824Y-14837198D01*
X9739824Y-14837198D02*
X9730300Y-14875293D01*
X9730300Y-14875293D02*
X9720777Y-14894341D01*
X9720777Y-14894341D02*
X9711253Y-14903865D01*
X9711253Y-14903865D02*
X9692205Y-14913389D01*
X9692205Y-14913389D02*
X9673158Y-14913389D01*
X9673158Y-14913389D02*
X9654110Y-14903865D01*
X9654110Y-14903865D02*
X9644586Y-14894341D01*
X9644586Y-14894341D02*
X9635062Y-14875293D01*
X9635062Y-14875293D02*
X9625539Y-14837198D01*
X9625539Y-14837198D02*
X9625539Y-14789579D01*
X9625539Y-14789579D02*
X9635062Y-14751484D01*
X9635062Y-14751484D02*
X9644586Y-14732436D01*
X9644586Y-14732436D02*
X9654110Y-14722913D01*
X9654110Y-14722913D02*
X9673158Y-14713389D01*
X9863634Y-14713389D02*
X9882681Y-14713389D01*
X9882681Y-14713389D02*
X9901729Y-14722913D01*
X9901729Y-14722913D02*
X9911253Y-14732436D01*
X9911253Y-14732436D02*
X9920777Y-14751484D01*
X9920777Y-14751484D02*
X9930300Y-14789579D01*
X9930300Y-14789579D02*
X9930300Y-14837198D01*
X9930300Y-14837198D02*
X9920777Y-14875293D01*
X9920777Y-14875293D02*
X9911253Y-14894341D01*
X9911253Y-14894341D02*
X9901729Y-14903865D01*
X9901729Y-14903865D02*
X9882681Y-14913389D01*
X9882681Y-14913389D02*
X9863634Y-14913389D01*
X9863634Y-14913389D02*
X9844586Y-14903865D01*
X9844586Y-14903865D02*
X9835062Y-14894341D01*
X9835062Y-14894341D02*
X9825539Y-14875293D01*
X9825539Y-14875293D02*
X9816015Y-14837198D01*
X9816015Y-14837198D02*
X9816015Y-14789579D01*
X9816015Y-14789579D02*
X9825539Y-14751484D01*
X9825539Y-14751484D02*
X9835062Y-14732436D01*
X9835062Y-14732436D02*
X9844586Y-14722913D01*
X9844586Y-14722913D02*
X9863634Y-14713389D01*
X10016015Y-14913389D02*
X10016015Y-14780055D01*
X10016015Y-14799103D02*
X10025539Y-14789579D01*
X10025539Y-14789579D02*
X10044586Y-14780055D01*
X10044586Y-14780055D02*
X10073158Y-14780055D01*
X10073158Y-14780055D02*
X10092205Y-14789579D01*
X10092205Y-14789579D02*
X10101729Y-14808627D01*
X10101729Y-14808627D02*
X10101729Y-14913389D01*
X10101729Y-14808627D02*
X10111253Y-14789579D01*
X10111253Y-14789579D02*
X10130300Y-14780055D01*
X10130300Y-14780055D02*
X10158872Y-14780055D01*
X10158872Y-14780055D02*
X10177920Y-14789579D01*
X10177920Y-14789579D02*
X10187443Y-14808627D01*
X10187443Y-14808627D02*
X10187443Y-14913389D01*
X10282681Y-14913389D02*
X10282681Y-14780055D01*
X10282681Y-14799103D02*
X10292205Y-14789579D01*
X10292205Y-14789579D02*
X10311253Y-14780055D01*
X10311253Y-14780055D02*
X10339824Y-14780055D01*
X10339824Y-14780055D02*
X10358872Y-14789579D01*
X10358872Y-14789579D02*
X10368396Y-14808627D01*
X10368396Y-14808627D02*
X10368396Y-14913389D01*
X10368396Y-14808627D02*
X10377920Y-14789579D01*
X10377920Y-14789579D02*
X10396967Y-14780055D01*
X10396967Y-14780055D02*
X10425539Y-14780055D01*
X10425539Y-14780055D02*
X10444586Y-14789579D01*
X10444586Y-14789579D02*
X10454110Y-14808627D01*
X10454110Y-14808627D02*
X10454110Y-14913389D01*
X10844586Y-14703865D02*
X10673158Y-14961008D01*
X11101729Y-14713389D02*
X11120777Y-14713389D01*
X11120777Y-14713389D02*
X11139824Y-14722913D01*
X11139824Y-14722913D02*
X11149348Y-14732436D01*
X11149348Y-14732436D02*
X11158872Y-14751484D01*
X11158872Y-14751484D02*
X11168396Y-14789579D01*
X11168396Y-14789579D02*
X11168396Y-14837198D01*
X11168396Y-14837198D02*
X11158872Y-14875293D01*
X11158872Y-14875293D02*
X11149348Y-14894341D01*
X11149348Y-14894341D02*
X11139824Y-14903865D01*
X11139824Y-14903865D02*
X11120777Y-14913389D01*
X11120777Y-14913389D02*
X11101729Y-14913389D01*
X11101729Y-14913389D02*
X11082682Y-14903865D01*
X11082682Y-14903865D02*
X11073158Y-14894341D01*
X11073158Y-14894341D02*
X11063634Y-14875293D01*
X11063634Y-14875293D02*
X11054110Y-14837198D01*
X11054110Y-14837198D02*
X11054110Y-14789579D01*
X11054110Y-14789579D02*
X11063634Y-14751484D01*
X11063634Y-14751484D02*
X11073158Y-14732436D01*
X11073158Y-14732436D02*
X11082682Y-14722913D01*
X11082682Y-14722913D02*
X11101729Y-14713389D01*
X11254110Y-14894341D02*
X11263634Y-14903865D01*
X11263634Y-14903865D02*
X11254110Y-14913389D01*
X11254110Y-14913389D02*
X11244586Y-14903865D01*
X11244586Y-14903865D02*
X11254110Y-14894341D01*
X11254110Y-14894341D02*
X11254110Y-14913389D01*
X11454110Y-14913389D02*
X11339824Y-14913389D01*
X11396967Y-14913389D02*
X11396967Y-14713389D01*
X11396967Y-14713389D02*
X11377920Y-14741960D01*
X11377920Y-14741960D02*
X11358872Y-14761008D01*
X11358872Y-14761008D02*
X11339824Y-14770532D01*
X11644586Y-14913389D02*
X11530301Y-14913389D01*
X11587443Y-14913389D02*
X11587443Y-14713389D01*
X11587443Y-14713389D02*
X11568396Y-14741960D01*
X11568396Y-14741960D02*
X11549348Y-14761008D01*
X11549348Y-14761008D02*
X11530301Y-14770532D01*
X11758872Y-14799103D02*
X11739824Y-14789579D01*
X11739824Y-14789579D02*
X11730301Y-14780055D01*
X11730301Y-14780055D02*
X11720777Y-14761008D01*
X11720777Y-14761008D02*
X11720777Y-14751484D01*
X11720777Y-14751484D02*
X11730301Y-14732436D01*
X11730301Y-14732436D02*
X11739824Y-14722913D01*
X11739824Y-14722913D02*
X11758872Y-14713389D01*
X11758872Y-14713389D02*
X11796967Y-14713389D01*
X11796967Y-14713389D02*
X11816015Y-14722913D01*
X11816015Y-14722913D02*
X11825539Y-14732436D01*
X11825539Y-14732436D02*
X11835062Y-14751484D01*
X11835062Y-14751484D02*
X11835062Y-14761008D01*
X11835062Y-14761008D02*
X11825539Y-14780055D01*
X11825539Y-14780055D02*
X11816015Y-14789579D01*
X11816015Y-14789579D02*
X11796967Y-14799103D01*
X11796967Y-14799103D02*
X11758872Y-14799103D01*
X11758872Y-14799103D02*
X11739824Y-14808627D01*
X11739824Y-14808627D02*
X11730301Y-14818151D01*
X11730301Y-14818151D02*
X11720777Y-14837198D01*
X11720777Y-14837198D02*
X11720777Y-14875293D01*
X11720777Y-14875293D02*
X11730301Y-14894341D01*
X11730301Y-14894341D02*
X11739824Y-14903865D01*
X11739824Y-14903865D02*
X11758872Y-14913389D01*
X11758872Y-14913389D02*
X11796967Y-14913389D01*
X11796967Y-14913389D02*
X11816015Y-14903865D01*
X11816015Y-14903865D02*
X11825539Y-14894341D01*
X11825539Y-14894341D02*
X11835062Y-14875293D01*
X11835062Y-14875293D02*
X11835062Y-14837198D01*
X11835062Y-14837198D02*
X11825539Y-14818151D01*
X11825539Y-14818151D02*
X11816015Y-14808627D01*
X11816015Y-14808627D02*
X11796967Y-14799103D01*
X12025539Y-14913389D02*
X11911253Y-14913389D01*
X11968396Y-14913389D02*
X11968396Y-14713389D01*
X11968396Y-14713389D02*
X11949348Y-14741960D01*
X11949348Y-14741960D02*
X11930301Y-14761008D01*
X11930301Y-14761008D02*
X11911253Y-14770532D01*
X12101729Y-14713389D02*
X12101729Y-14751484D01*
X12177920Y-14713389D02*
X12177920Y-14751484D01*
X12473158Y-14989579D02*
X12463634Y-14980055D01*
X12463634Y-14980055D02*
X12444586Y-14951484D01*
X12444586Y-14951484D02*
X12435063Y-14932436D01*
X12435063Y-14932436D02*
X12425539Y-14903865D01*
X12425539Y-14903865D02*
X12416015Y-14856246D01*
X12416015Y-14856246D02*
X12416015Y-14818151D01*
X12416015Y-14818151D02*
X12425539Y-14770532D01*
X12425539Y-14770532D02*
X12435063Y-14741960D01*
X12435063Y-14741960D02*
X12444586Y-14722913D01*
X12444586Y-14722913D02*
X12463634Y-14694341D01*
X12463634Y-14694341D02*
X12473158Y-14684817D01*
X12654110Y-14913389D02*
X12539824Y-14913389D01*
X12596967Y-14913389D02*
X12596967Y-14713389D01*
X12596967Y-14713389D02*
X12577920Y-14741960D01*
X12577920Y-14741960D02*
X12558872Y-14761008D01*
X12558872Y-14761008D02*
X12539824Y-14770532D01*
X12730301Y-14732436D02*
X12739824Y-14722913D01*
X12739824Y-14722913D02*
X12758872Y-14713389D01*
X12758872Y-14713389D02*
X12806491Y-14713389D01*
X12806491Y-14713389D02*
X12825539Y-14722913D01*
X12825539Y-14722913D02*
X12835063Y-14732436D01*
X12835063Y-14732436D02*
X12844586Y-14751484D01*
X12844586Y-14751484D02*
X12844586Y-14770532D01*
X12844586Y-14770532D02*
X12835063Y-14799103D01*
X12835063Y-14799103D02*
X12720777Y-14913389D01*
X12720777Y-14913389D02*
X12844586Y-14913389D01*
X13082682Y-14913389D02*
X13082682Y-14713389D01*
X13168396Y-14913389D02*
X13168396Y-14808627D01*
X13168396Y-14808627D02*
X13158872Y-14789579D01*
X13158872Y-14789579D02*
X13139825Y-14780055D01*
X13139825Y-14780055D02*
X13111253Y-14780055D01*
X13111253Y-14780055D02*
X13092205Y-14789579D01*
X13092205Y-14789579D02*
X13082682Y-14799103D01*
X13292205Y-14913389D02*
X13273158Y-14903865D01*
X13273158Y-14903865D02*
X13263634Y-14894341D01*
X13263634Y-14894341D02*
X13254110Y-14875293D01*
X13254110Y-14875293D02*
X13254110Y-14818151D01*
X13254110Y-14818151D02*
X13263634Y-14799103D01*
X13263634Y-14799103D02*
X13273158Y-14789579D01*
X13273158Y-14789579D02*
X13292205Y-14780055D01*
X13292205Y-14780055D02*
X13320777Y-14780055D01*
X13320777Y-14780055D02*
X13339825Y-14789579D01*
X13339825Y-14789579D02*
X13349348Y-14799103D01*
X13349348Y-14799103D02*
X13358872Y-14818151D01*
X13358872Y-14818151D02*
X13358872Y-14875293D01*
X13358872Y-14875293D02*
X13349348Y-14894341D01*
X13349348Y-14894341D02*
X13339825Y-14903865D01*
X13339825Y-14903865D02*
X13320777Y-14913389D01*
X13320777Y-14913389D02*
X13292205Y-14913389D01*
X13473158Y-14913389D02*
X13454110Y-14903865D01*
X13454110Y-14903865D02*
X13444586Y-14884817D01*
X13444586Y-14884817D02*
X13444586Y-14713389D01*
X13625539Y-14903865D02*
X13606491Y-14913389D01*
X13606491Y-14913389D02*
X13568396Y-14913389D01*
X13568396Y-14913389D02*
X13549348Y-14903865D01*
X13549348Y-14903865D02*
X13539825Y-14884817D01*
X13539825Y-14884817D02*
X13539825Y-14808627D01*
X13539825Y-14808627D02*
X13549348Y-14789579D01*
X13549348Y-14789579D02*
X13568396Y-14780055D01*
X13568396Y-14780055D02*
X13606491Y-14780055D01*
X13606491Y-14780055D02*
X13625539Y-14789579D01*
X13625539Y-14789579D02*
X13635063Y-14808627D01*
X13635063Y-14808627D02*
X13635063Y-14827674D01*
X13635063Y-14827674D02*
X13539825Y-14846722D01*
X13711253Y-14903865D02*
X13730301Y-14913389D01*
X13730301Y-14913389D02*
X13768396Y-14913389D01*
X13768396Y-14913389D02*
X13787444Y-14903865D01*
X13787444Y-14903865D02*
X13796967Y-14884817D01*
X13796967Y-14884817D02*
X13796967Y-14875293D01*
X13796967Y-14875293D02*
X13787444Y-14856246D01*
X13787444Y-14856246D02*
X13768396Y-14846722D01*
X13768396Y-14846722D02*
X13739825Y-14846722D01*
X13739825Y-14846722D02*
X13720777Y-14837198D01*
X13720777Y-14837198D02*
X13711253Y-14818151D01*
X13711253Y-14818151D02*
X13711253Y-14808627D01*
X13711253Y-14808627D02*
X13720777Y-14789579D01*
X13720777Y-14789579D02*
X13739825Y-14780055D01*
X13739825Y-14780055D02*
X13768396Y-14780055D01*
X13768396Y-14780055D02*
X13787444Y-14789579D01*
X13863634Y-14989579D02*
X13873158Y-14980055D01*
X13873158Y-14980055D02*
X13892206Y-14951484D01*
X13892206Y-14951484D02*
X13901729Y-14932436D01*
X13901729Y-14932436D02*
X13911253Y-14903865D01*
X13911253Y-14903865D02*
X13920777Y-14856246D01*
X13920777Y-14856246D02*
X13920777Y-14818151D01*
X13920777Y-14818151D02*
X13911253Y-14770532D01*
X13911253Y-14770532D02*
X13901729Y-14741960D01*
X13901729Y-14741960D02*
X13892206Y-14722913D01*
X13892206Y-14722913D02*
X13873158Y-14694341D01*
X13873158Y-14694341D02*
X13863634Y-14684817D01*
X14225539Y-14989579D02*
X14216015Y-14980055D01*
X14216015Y-14980055D02*
X14196967Y-14951484D01*
X14196967Y-14951484D02*
X14187444Y-14932436D01*
X14187444Y-14932436D02*
X14177920Y-14903865D01*
X14177920Y-14903865D02*
X14168396Y-14856246D01*
X14168396Y-14856246D02*
X14168396Y-14818151D01*
X14168396Y-14818151D02*
X14177920Y-14770532D01*
X14177920Y-14770532D02*
X14187444Y-14741960D01*
X14187444Y-14741960D02*
X14196967Y-14722913D01*
X14196967Y-14722913D02*
X14216015Y-14694341D01*
X14216015Y-14694341D02*
X14225539Y-14684817D01*
X14301729Y-14780055D02*
X14301729Y-14913389D01*
X14301729Y-14799103D02*
X14311253Y-14789579D01*
X14311253Y-14789579D02*
X14330301Y-14780055D01*
X14330301Y-14780055D02*
X14358872Y-14780055D01*
X14358872Y-14780055D02*
X14377920Y-14789579D01*
X14377920Y-14789579D02*
X14387444Y-14808627D01*
X14387444Y-14808627D02*
X14387444Y-14913389D01*
X14511253Y-14913389D02*
X14492206Y-14903865D01*
X14492206Y-14903865D02*
X14482682Y-14894341D01*
X14482682Y-14894341D02*
X14473158Y-14875293D01*
X14473158Y-14875293D02*
X14473158Y-14818151D01*
X14473158Y-14818151D02*
X14482682Y-14799103D01*
X14482682Y-14799103D02*
X14492206Y-14789579D01*
X14492206Y-14789579D02*
X14511253Y-14780055D01*
X14511253Y-14780055D02*
X14539825Y-14780055D01*
X14539825Y-14780055D02*
X14558872Y-14789579D01*
X14558872Y-14789579D02*
X14568396Y-14799103D01*
X14568396Y-14799103D02*
X14577920Y-14818151D01*
X14577920Y-14818151D02*
X14577920Y-14875293D01*
X14577920Y-14875293D02*
X14568396Y-14894341D01*
X14568396Y-14894341D02*
X14558872Y-14903865D01*
X14558872Y-14903865D02*
X14539825Y-14913389D01*
X14539825Y-14913389D02*
X14511253Y-14913389D01*
X14635063Y-14780055D02*
X14711253Y-14780055D01*
X14663634Y-14713389D02*
X14663634Y-14884817D01*
X14663634Y-14884817D02*
X14673158Y-14903865D01*
X14673158Y-14903865D02*
X14692206Y-14913389D01*
X14692206Y-14913389D02*
X14711253Y-14913389D01*
X14930301Y-14780055D02*
X14930301Y-14980055D01*
X14930301Y-14789579D02*
X14949348Y-14780055D01*
X14949348Y-14780055D02*
X14987444Y-14780055D01*
X14987444Y-14780055D02*
X15006491Y-14789579D01*
X15006491Y-14789579D02*
X15016015Y-14799103D01*
X15016015Y-14799103D02*
X15025539Y-14818151D01*
X15025539Y-14818151D02*
X15025539Y-14875293D01*
X15025539Y-14875293D02*
X15016015Y-14894341D01*
X15016015Y-14894341D02*
X15006491Y-14903865D01*
X15006491Y-14903865D02*
X14987444Y-14913389D01*
X14987444Y-14913389D02*
X14949348Y-14913389D01*
X14949348Y-14913389D02*
X14930301Y-14903865D01*
X15139825Y-14913389D02*
X15120777Y-14903865D01*
X15120777Y-14903865D02*
X15111253Y-14884817D01*
X15111253Y-14884817D02*
X15111253Y-14713389D01*
X15301729Y-14913389D02*
X15301729Y-14808627D01*
X15301729Y-14808627D02*
X15292206Y-14789579D01*
X15292206Y-14789579D02*
X15273158Y-14780055D01*
X15273158Y-14780055D02*
X15235063Y-14780055D01*
X15235063Y-14780055D02*
X15216015Y-14789579D01*
X15301729Y-14903865D02*
X15282682Y-14913389D01*
X15282682Y-14913389D02*
X15235063Y-14913389D01*
X15235063Y-14913389D02*
X15216015Y-14903865D01*
X15216015Y-14903865D02*
X15206491Y-14884817D01*
X15206491Y-14884817D02*
X15206491Y-14865770D01*
X15206491Y-14865770D02*
X15216015Y-14846722D01*
X15216015Y-14846722D02*
X15235063Y-14837198D01*
X15235063Y-14837198D02*
X15282682Y-14837198D01*
X15282682Y-14837198D02*
X15301729Y-14827674D01*
X15368396Y-14780055D02*
X15444587Y-14780055D01*
X15396968Y-14713389D02*
X15396968Y-14884817D01*
X15396968Y-14884817D02*
X15406491Y-14903865D01*
X15406491Y-14903865D02*
X15425539Y-14913389D01*
X15425539Y-14913389D02*
X15444587Y-14913389D01*
X15587444Y-14903865D02*
X15568396Y-14913389D01*
X15568396Y-14913389D02*
X15530301Y-14913389D01*
X15530301Y-14913389D02*
X15511253Y-14903865D01*
X15511253Y-14903865D02*
X15501729Y-14884817D01*
X15501729Y-14884817D02*
X15501729Y-14808627D01*
X15501729Y-14808627D02*
X15511253Y-14789579D01*
X15511253Y-14789579D02*
X15530301Y-14780055D01*
X15530301Y-14780055D02*
X15568396Y-14780055D01*
X15568396Y-14780055D02*
X15587444Y-14789579D01*
X15587444Y-14789579D02*
X15596968Y-14808627D01*
X15596968Y-14808627D02*
X15596968Y-14827674D01*
X15596968Y-14827674D02*
X15501729Y-14846722D01*
X15768396Y-14913389D02*
X15768396Y-14713389D01*
X15768396Y-14903865D02*
X15749349Y-14913389D01*
X15749349Y-14913389D02*
X15711253Y-14913389D01*
X15711253Y-14913389D02*
X15692206Y-14903865D01*
X15692206Y-14903865D02*
X15682682Y-14894341D01*
X15682682Y-14894341D02*
X15673158Y-14875293D01*
X15673158Y-14875293D02*
X15673158Y-14818151D01*
X15673158Y-14818151D02*
X15682682Y-14799103D01*
X15682682Y-14799103D02*
X15692206Y-14789579D01*
X15692206Y-14789579D02*
X15711253Y-14780055D01*
X15711253Y-14780055D02*
X15749349Y-14780055D01*
X15749349Y-14780055D02*
X15768396Y-14789579D01*
X15844587Y-14989579D02*
X15854110Y-14980055D01*
X15854110Y-14980055D02*
X15873158Y-14951484D01*
X15873158Y-14951484D02*
X15882682Y-14932436D01*
X15882682Y-14932436D02*
X15892206Y-14903865D01*
X15892206Y-14903865D02*
X15901729Y-14856246D01*
X15901729Y-14856246D02*
X15901729Y-14818151D01*
X15901729Y-14818151D02*
X15892206Y-14770532D01*
X15892206Y-14770532D02*
X15882682Y-14741960D01*
X15882682Y-14741960D02*
X15873158Y-14722913D01*
X15873158Y-14722913D02*
X15854110Y-14694341D01*
X15854110Y-14694341D02*
X15844587Y-14684817D01*
M02*
