M48
; DRILL file {KiCad 9.0.2} date 2025-08-06T23:35:29+0200
; FORMAT={-:-/ absolute / metric / decimal}
; #@! TF.CreationDate,2025-08-06T23:35:29+02:00
; #@! TF.GenerationSoftware,Kicad,Pcbnew,9.0.2
; #@! TF.FileFunction,Plated,1,4,PTH
FMAT,2
METRIC
; #@! TA.AperFunction,Plated,PTH,ViaDrill
T1C0.300
; #@! TA.AperFunction,Plated,PTH,ComponentDrill
T2C1.000
; #@! TA.AperFunction,Plated,PTH,ComponentDrill
T3C1.200
; #@! TA.AperFunction,Plated,PTH,ComponentDrill
T4C1.400
%
G90
G05
T1
X112.8Y-66.4
X113.0Y-58.0
X120.232Y-76.183
X124.1Y-63.9
X125.4Y-52.4
X125.4Y-54.9
X125.4Y-63.9
X126.8Y-80.675
X135.5Y-77.301
X136.0Y-80.173
X137.2Y-65.9
X138.033Y-79.0
X138.5Y-91.941
X138.5Y-93.4
X138.8Y-60.6
X139.52Y-87.404
X139.53Y-89.277
X140.2Y-74.3
X140.256Y-89.179
X140.7Y-85.227
X140.74Y-84.173
X141.286Y-78.109
X142.6Y-93.3
X146.609Y-93.364
X147.3Y-83.7
X148.0Y-89.0
X148.473Y-84.8
X148.48Y-83.096
X156.83Y-88.03
X162.4Y-120.9
X162.4Y-124.2
X162.4Y-132.3
X173.5Y-89.0
X177.0Y-78.2
X177.0Y-81.8
X191.8Y-68.9
X195.9Y-68.8
T2
X102.58Y-58.0
X105.12Y-58.0
X107.66Y-58.0
X110.2Y-58.0
X171.0Y-102.5
X171.0Y-105.0
X171.0Y-107.5
T4
X143.5Y-59.0
X148.5Y-59.0
X160.27Y-59.0
X165.27Y-59.0
T3
X163.5Y-99.65G85X163.5Y-99.05
G05
X163.5Y-110.95G85X163.5Y-110.35
G05
M30
