G04 #@! TF.GenerationSoftware,KiCad,Pcbnew,9.0.2*
G04 #@! TF.CreationDate,2025-08-06T23:34:25+02:00*
G04 #@! TF.ProjectId,Moto_HMI_v001,4d6f746f-5f48-44d4-995f-763030312e6b,rev?*
G04 #@! TF.SameCoordinates,Original*
G04 #@! TF.FileFunction,Legend,Bot*
G04 #@! TF.FilePolarity,Positive*
%FSLAX46Y46*%
G04 Gerber Fmt 4.6, Leading zero omitted, Abs format (unit mm)*
G04 Created by KiCad (PCBNEW 9.0.2) date 2025-08-06 23:34:25*
%MOMM*%
%LPD*%
G01*
G04 APERTURE LIST*
G04 APERTURE END LIST*
%LPC*%
G36*
X94359039Y-135504495D02*
G01*
X94588567Y-135579073D01*
X94803603Y-135688639D01*
X94998851Y-135830496D01*
X95169504Y-136001149D01*
X95311361Y-136196397D01*
X95420927Y-136411433D01*
X95495505Y-136640961D01*
X95533259Y-136879330D01*
X95533259Y-137120670D01*
X95495505Y-137359039D01*
X95420927Y-137588567D01*
X95311361Y-137803603D01*
X95169504Y-137998851D01*
X94998851Y-138169504D01*
X94803603Y-138311361D01*
X94588567Y-138420927D01*
X94359039Y-138495505D01*
X94120670Y-138533259D01*
X93879330Y-138533259D01*
X93640961Y-138495505D01*
X93411433Y-138420927D01*
X93196397Y-138311361D01*
X93001149Y-138169504D01*
X92830496Y-137998851D01*
X92688639Y-137803603D01*
X92579073Y-137588567D01*
X92504495Y-137359039D01*
X92466741Y-137120670D01*
X92466741Y-136879330D01*
X92504495Y-136640961D01*
X92579073Y-136411433D01*
X92688639Y-136196397D01*
X92830496Y-136001149D01*
X93001149Y-135830496D01*
X93196397Y-135688639D01*
X93411433Y-135579073D01*
X93640961Y-135504495D01*
X93879330Y-135466741D01*
X94120670Y-135466741D01*
X94359039Y-135504495D01*
G37*
G36*
X215359039Y-135504495D02*
G01*
X215588567Y-135579073D01*
X215803603Y-135688639D01*
X215998851Y-135830496D01*
X216169504Y-136001149D01*
X216311361Y-136196397D01*
X216420927Y-136411433D01*
X216495505Y-136640961D01*
X216533259Y-136879330D01*
X216533259Y-137120670D01*
X216495505Y-137359039D01*
X216420927Y-137588567D01*
X216311361Y-137803603D01*
X216169504Y-137998851D01*
X215998851Y-138169504D01*
X215803603Y-138311361D01*
X215588567Y-138420927D01*
X215359039Y-138495505D01*
X215120670Y-138533259D01*
X214879330Y-138533259D01*
X214640961Y-138495505D01*
X214411433Y-138420927D01*
X214196397Y-138311361D01*
X214001149Y-138169504D01*
X213830496Y-137998851D01*
X213688639Y-137803603D01*
X213579073Y-137588567D01*
X213504495Y-137359039D01*
X213466741Y-137120670D01*
X213466741Y-136879330D01*
X213504495Y-136640961D01*
X213579073Y-136411433D01*
X213688639Y-136196397D01*
X213830496Y-136001149D01*
X214001149Y-135830496D01*
X214196397Y-135688639D01*
X214411433Y-135579073D01*
X214640961Y-135504495D01*
X214879330Y-135466741D01*
X215120670Y-135466741D01*
X215359039Y-135504495D01*
G37*
G36*
X184359039Y-124284495D02*
G01*
X184588567Y-124359073D01*
X184803603Y-124468639D01*
X184998851Y-124610496D01*
X185169504Y-124781149D01*
X185311361Y-124976397D01*
X185420927Y-125191433D01*
X185495505Y-125420961D01*
X185533259Y-125659330D01*
X185533259Y-125900670D01*
X185495505Y-126139039D01*
X185420927Y-126368567D01*
X185311361Y-126583603D01*
X185169504Y-126778851D01*
X184998851Y-126949504D01*
X184803603Y-127091361D01*
X184588567Y-127200927D01*
X184359039Y-127275505D01*
X184120670Y-127313259D01*
X183879330Y-127313259D01*
X183640961Y-127275505D01*
X183411433Y-127200927D01*
X183196397Y-127091361D01*
X183001149Y-126949504D01*
X182830496Y-126778851D01*
X182688639Y-126583603D01*
X182579073Y-126368567D01*
X182504495Y-126139039D01*
X182466741Y-125900670D01*
X182466741Y-125659330D01*
X182504495Y-125420961D01*
X182579073Y-125191433D01*
X182688639Y-124976397D01*
X182830496Y-124781149D01*
X183001149Y-124610496D01*
X183196397Y-124468639D01*
X183411433Y-124359073D01*
X183640961Y-124284495D01*
X183879330Y-124246741D01*
X184120670Y-124246741D01*
X184359039Y-124284495D01*
G37*
G36*
X204359039Y-124284495D02*
G01*
X204588567Y-124359073D01*
X204803603Y-124468639D01*
X204998851Y-124610496D01*
X205169504Y-124781149D01*
X205311361Y-124976397D01*
X205420927Y-125191433D01*
X205495505Y-125420961D01*
X205533259Y-125659330D01*
X205533259Y-125900670D01*
X205495505Y-126139039D01*
X205420927Y-126368567D01*
X205311361Y-126583603D01*
X205169504Y-126778851D01*
X204998851Y-126949504D01*
X204803603Y-127091361D01*
X204588567Y-127200927D01*
X204359039Y-127275505D01*
X204120670Y-127313259D01*
X203879330Y-127313259D01*
X203640961Y-127275505D01*
X203411433Y-127200927D01*
X203196397Y-127091361D01*
X203001149Y-126949504D01*
X202830496Y-126778851D01*
X202688639Y-126583603D01*
X202579073Y-126368567D01*
X202504495Y-126139039D01*
X202466741Y-125900670D01*
X202466741Y-125659330D01*
X202504495Y-125420961D01*
X202579073Y-125191433D01*
X202688639Y-124976397D01*
X202830496Y-124781149D01*
X203001149Y-124610496D01*
X203196397Y-124468639D01*
X203411433Y-124359073D01*
X203640961Y-124284495D01*
X203879330Y-124246741D01*
X204120670Y-124246741D01*
X204359039Y-124284495D01*
G37*
G36*
X164438940Y-109376488D02*
G01*
X164445019Y-109379459D01*
X164446958Y-109379767D01*
X164478005Y-109395586D01*
X164542005Y-109426874D01*
X164623126Y-109507995D01*
X164654425Y-109572018D01*
X164670232Y-109603041D01*
X164670538Y-109604978D01*
X164673512Y-109611060D01*
X164688000Y-109710500D01*
X164688000Y-111589500D01*
X164673512Y-111688940D01*
X164670538Y-111695022D01*
X164670232Y-111696958D01*
X164654437Y-111727956D01*
X164623126Y-111792005D01*
X164542005Y-111873126D01*
X164477956Y-111904437D01*
X164446958Y-111920232D01*
X164445022Y-111920538D01*
X164438940Y-111923512D01*
X164339500Y-111938000D01*
X162660500Y-111938000D01*
X162561060Y-111923512D01*
X162554978Y-111920538D01*
X162553041Y-111920232D01*
X162522018Y-111904425D01*
X162457995Y-111873126D01*
X162376874Y-111792005D01*
X162345586Y-111728005D01*
X162329767Y-111696958D01*
X162329459Y-111695019D01*
X162326488Y-111688940D01*
X162312000Y-111589500D01*
X162312000Y-109710500D01*
X162326488Y-109611060D01*
X162329459Y-109604981D01*
X162329767Y-109603041D01*
X162345598Y-109571970D01*
X162376874Y-109507995D01*
X162457995Y-109426874D01*
X162521970Y-109395598D01*
X162553041Y-109379767D01*
X162554981Y-109379459D01*
X162561060Y-109376488D01*
X162660500Y-109362000D01*
X164339500Y-109362000D01*
X164438940Y-109376488D01*
G37*
G36*
X171091612Y-106466998D02*
G01*
X171101742Y-106466998D01*
X171141324Y-106474871D01*
X171242273Y-106490860D01*
X171274745Y-106501410D01*
X171301315Y-106506696D01*
X171338806Y-106522225D01*
X171397155Y-106541184D01*
X171451819Y-106569037D01*
X171489310Y-106584566D01*
X171511832Y-106599614D01*
X171542253Y-106615115D01*
X171624942Y-106675192D01*
X171658500Y-106697615D01*
X171665662Y-106704777D01*
X171674004Y-106710838D01*
X171789161Y-106825995D01*
X171795221Y-106834336D01*
X171802385Y-106841500D01*
X171824810Y-106875062D01*
X171884884Y-106957746D01*
X171900383Y-106988164D01*
X171915434Y-107010690D01*
X171930965Y-107048185D01*
X171958815Y-107102844D01*
X171977771Y-107161185D01*
X171993304Y-107198685D01*
X171998590Y-107225259D01*
X172009139Y-107257726D01*
X172025126Y-107358667D01*
X172033002Y-107398258D01*
X172033002Y-107408388D01*
X172034615Y-107418572D01*
X172034615Y-107581427D01*
X172033002Y-107591610D01*
X172033002Y-107601742D01*
X172025126Y-107641336D01*
X172009139Y-107742273D01*
X171998590Y-107774737D01*
X171993304Y-107801315D01*
X171977769Y-107838818D01*
X171958815Y-107897155D01*
X171930967Y-107951809D01*
X171915434Y-107989310D01*
X171900380Y-108011838D01*
X171884884Y-108042253D01*
X171824818Y-108124925D01*
X171802385Y-108158500D01*
X171795218Y-108165666D01*
X171789161Y-108174004D01*
X171674004Y-108289161D01*
X171665666Y-108295218D01*
X171658500Y-108302385D01*
X171624925Y-108324818D01*
X171542253Y-108384884D01*
X171511838Y-108400380D01*
X171489310Y-108415434D01*
X171451809Y-108430967D01*
X171397155Y-108458815D01*
X171338818Y-108477769D01*
X171301315Y-108493304D01*
X171274737Y-108498590D01*
X171242273Y-108509139D01*
X171141333Y-108525126D01*
X171101742Y-108533002D01*
X171091612Y-108533002D01*
X171081428Y-108534615D01*
X170918572Y-108534615D01*
X170908388Y-108533002D01*
X170898258Y-108533002D01*
X170858667Y-108525126D01*
X170757726Y-108509139D01*
X170725259Y-108498590D01*
X170698685Y-108493304D01*
X170661185Y-108477771D01*
X170602844Y-108458815D01*
X170548185Y-108430965D01*
X170510690Y-108415434D01*
X170488164Y-108400383D01*
X170457746Y-108384884D01*
X170375062Y-108324810D01*
X170341500Y-108302385D01*
X170334336Y-108295221D01*
X170325995Y-108289161D01*
X170210838Y-108174004D01*
X170204777Y-108165662D01*
X170197615Y-108158500D01*
X170175192Y-108124942D01*
X170115115Y-108042253D01*
X170099614Y-108011832D01*
X170084566Y-107989310D01*
X170069037Y-107951819D01*
X170041184Y-107897155D01*
X170022225Y-107838806D01*
X170006696Y-107801315D01*
X170001410Y-107774745D01*
X169990860Y-107742273D01*
X169974872Y-107641327D01*
X169966998Y-107601742D01*
X169966998Y-107591611D01*
X169965385Y-107581427D01*
X169965385Y-107418572D01*
X169966998Y-107408387D01*
X169966998Y-107398258D01*
X169974871Y-107358676D01*
X169990860Y-107257726D01*
X170001411Y-107225251D01*
X170006696Y-107198685D01*
X170022224Y-107161196D01*
X170041184Y-107102844D01*
X170069039Y-107048174D01*
X170084566Y-107010690D01*
X170099612Y-106988170D01*
X170115115Y-106957746D01*
X170175200Y-106875045D01*
X170197615Y-106841500D01*
X170204774Y-106834340D01*
X170210838Y-106825995D01*
X170325995Y-106710838D01*
X170334340Y-106704774D01*
X170341500Y-106697615D01*
X170375045Y-106675200D01*
X170457746Y-106615115D01*
X170488170Y-106599612D01*
X170510690Y-106584566D01*
X170548174Y-106569039D01*
X170602844Y-106541184D01*
X170661196Y-106522224D01*
X170698685Y-106506696D01*
X170725251Y-106501411D01*
X170757726Y-106490860D01*
X170858676Y-106474871D01*
X170898258Y-106466998D01*
X170908388Y-106466998D01*
X170918572Y-106465385D01*
X171081428Y-106465385D01*
X171091612Y-106466998D01*
G37*
G36*
X184359039Y-104284495D02*
G01*
X184588567Y-104359073D01*
X184803603Y-104468639D01*
X184998851Y-104610496D01*
X185169504Y-104781149D01*
X185311361Y-104976397D01*
X185420927Y-105191433D01*
X185495505Y-105420961D01*
X185533259Y-105659330D01*
X185533259Y-105900670D01*
X185495505Y-106139039D01*
X185420927Y-106368567D01*
X185311361Y-106583603D01*
X185169504Y-106778851D01*
X184998851Y-106949504D01*
X184803603Y-107091361D01*
X184588567Y-107200927D01*
X184359039Y-107275505D01*
X184120670Y-107313259D01*
X183879330Y-107313259D01*
X183640961Y-107275505D01*
X183411433Y-107200927D01*
X183196397Y-107091361D01*
X183001149Y-106949504D01*
X182830496Y-106778851D01*
X182688639Y-106583603D01*
X182579073Y-106368567D01*
X182504495Y-106139039D01*
X182466741Y-105900670D01*
X182466741Y-105659330D01*
X182504495Y-105420961D01*
X182579073Y-105191433D01*
X182688639Y-104976397D01*
X182830496Y-104781149D01*
X183001149Y-104610496D01*
X183196397Y-104468639D01*
X183411433Y-104359073D01*
X183640961Y-104284495D01*
X183879330Y-104246741D01*
X184120670Y-104246741D01*
X184359039Y-104284495D01*
G37*
G36*
X204359039Y-104284495D02*
G01*
X204588567Y-104359073D01*
X204803603Y-104468639D01*
X204998851Y-104610496D01*
X205169504Y-104781149D01*
X205311361Y-104976397D01*
X205420927Y-105191433D01*
X205495505Y-105420961D01*
X205533259Y-105659330D01*
X205533259Y-105900670D01*
X205495505Y-106139039D01*
X205420927Y-106368567D01*
X205311361Y-106583603D01*
X205169504Y-106778851D01*
X204998851Y-106949504D01*
X204803603Y-107091361D01*
X204588567Y-107200927D01*
X204359039Y-107275505D01*
X204120670Y-107313259D01*
X203879330Y-107313259D01*
X203640961Y-107275505D01*
X203411433Y-107200927D01*
X203196397Y-107091361D01*
X203001149Y-106949504D01*
X202830496Y-106778851D01*
X202688639Y-106583603D01*
X202579073Y-106368567D01*
X202504495Y-106139039D01*
X202466741Y-105900670D01*
X202466741Y-105659330D01*
X202504495Y-105420961D01*
X202579073Y-105191433D01*
X202688639Y-104976397D01*
X202830496Y-104781149D01*
X203001149Y-104610496D01*
X203196397Y-104468639D01*
X203411433Y-104359073D01*
X203640961Y-104284495D01*
X203879330Y-104246741D01*
X204120670Y-104246741D01*
X204359039Y-104284495D01*
G37*
G36*
X171091612Y-103966998D02*
G01*
X171101742Y-103966998D01*
X171141324Y-103974871D01*
X171242273Y-103990860D01*
X171274745Y-104001410D01*
X171301315Y-104006696D01*
X171338806Y-104022225D01*
X171397155Y-104041184D01*
X171451819Y-104069037D01*
X171489310Y-104084566D01*
X171511832Y-104099614D01*
X171542253Y-104115115D01*
X171624942Y-104175192D01*
X171658500Y-104197615D01*
X171665662Y-104204777D01*
X171674004Y-104210838D01*
X171789161Y-104325995D01*
X171795221Y-104334336D01*
X171802385Y-104341500D01*
X171824810Y-104375062D01*
X171884884Y-104457746D01*
X171900383Y-104488164D01*
X171915434Y-104510690D01*
X171930965Y-104548185D01*
X171958815Y-104602844D01*
X171977771Y-104661185D01*
X171993304Y-104698685D01*
X171998590Y-104725259D01*
X172009139Y-104757726D01*
X172025126Y-104858667D01*
X172033002Y-104898258D01*
X172033002Y-104908388D01*
X172034615Y-104918572D01*
X172034615Y-105081427D01*
X172033002Y-105091610D01*
X172033002Y-105101742D01*
X172025126Y-105141336D01*
X172009139Y-105242273D01*
X171998590Y-105274737D01*
X171993304Y-105301315D01*
X171977769Y-105338818D01*
X171958815Y-105397155D01*
X171930967Y-105451809D01*
X171915434Y-105489310D01*
X171900380Y-105511838D01*
X171884884Y-105542253D01*
X171824818Y-105624925D01*
X171802385Y-105658500D01*
X171795218Y-105665666D01*
X171789161Y-105674004D01*
X171674004Y-105789161D01*
X171665666Y-105795218D01*
X171658500Y-105802385D01*
X171624925Y-105824818D01*
X171542253Y-105884884D01*
X171511838Y-105900380D01*
X171489310Y-105915434D01*
X171451809Y-105930967D01*
X171397155Y-105958815D01*
X171338818Y-105977769D01*
X171301315Y-105993304D01*
X171274737Y-105998590D01*
X171242273Y-106009139D01*
X171141333Y-106025126D01*
X171101742Y-106033002D01*
X171091612Y-106033002D01*
X171081428Y-106034615D01*
X170918572Y-106034615D01*
X170908388Y-106033002D01*
X170898258Y-106033002D01*
X170858667Y-106025126D01*
X170757726Y-106009139D01*
X170725259Y-105998590D01*
X170698685Y-105993304D01*
X170661185Y-105977771D01*
X170602844Y-105958815D01*
X170548185Y-105930965D01*
X170510690Y-105915434D01*
X170488164Y-105900383D01*
X170457746Y-105884884D01*
X170375062Y-105824810D01*
X170341500Y-105802385D01*
X170334336Y-105795221D01*
X170325995Y-105789161D01*
X170210838Y-105674004D01*
X170204777Y-105665662D01*
X170197615Y-105658500D01*
X170175192Y-105624942D01*
X170115115Y-105542253D01*
X170099614Y-105511832D01*
X170084566Y-105489310D01*
X170069037Y-105451819D01*
X170041184Y-105397155D01*
X170022225Y-105338806D01*
X170006696Y-105301315D01*
X170001410Y-105274745D01*
X169990860Y-105242273D01*
X169974872Y-105141327D01*
X169966998Y-105101742D01*
X169966998Y-105091611D01*
X169965385Y-105081427D01*
X169965385Y-104918572D01*
X169966998Y-104908387D01*
X169966998Y-104898258D01*
X169974871Y-104858676D01*
X169990860Y-104757726D01*
X170001411Y-104725251D01*
X170006696Y-104698685D01*
X170022224Y-104661196D01*
X170041184Y-104602844D01*
X170069039Y-104548174D01*
X170084566Y-104510690D01*
X170099612Y-104488170D01*
X170115115Y-104457746D01*
X170175200Y-104375045D01*
X170197615Y-104341500D01*
X170204774Y-104334340D01*
X170210838Y-104325995D01*
X170325995Y-104210838D01*
X170334340Y-104204774D01*
X170341500Y-104197615D01*
X170375045Y-104175200D01*
X170457746Y-104115115D01*
X170488170Y-104099612D01*
X170510690Y-104084566D01*
X170548174Y-104069039D01*
X170602844Y-104041184D01*
X170661196Y-104022224D01*
X170698685Y-104006696D01*
X170725251Y-104001411D01*
X170757726Y-103990860D01*
X170858676Y-103974871D01*
X170898258Y-103966998D01*
X170908388Y-103966998D01*
X170918572Y-103965385D01*
X171081428Y-103965385D01*
X171091612Y-103966998D01*
G37*
G36*
X171091612Y-101466998D02*
G01*
X171101742Y-101466998D01*
X171141324Y-101474871D01*
X171242273Y-101490860D01*
X171274745Y-101501410D01*
X171301315Y-101506696D01*
X171338806Y-101522225D01*
X171397155Y-101541184D01*
X171451819Y-101569037D01*
X171489310Y-101584566D01*
X171511832Y-101599614D01*
X171542253Y-101615115D01*
X171624942Y-101675192D01*
X171658500Y-101697615D01*
X171665662Y-101704777D01*
X171674004Y-101710838D01*
X171789161Y-101825995D01*
X171795221Y-101834336D01*
X171802385Y-101841500D01*
X171824810Y-101875062D01*
X171884884Y-101957746D01*
X171900383Y-101988164D01*
X171915434Y-102010690D01*
X171930965Y-102048185D01*
X171958815Y-102102844D01*
X171977771Y-102161185D01*
X171993304Y-102198685D01*
X171998590Y-102225259D01*
X172009139Y-102257726D01*
X172025126Y-102358667D01*
X172033002Y-102398258D01*
X172033002Y-102408388D01*
X172034615Y-102418572D01*
X172034615Y-102581427D01*
X172033002Y-102591610D01*
X172033002Y-102601742D01*
X172025126Y-102641336D01*
X172009139Y-102742273D01*
X171998590Y-102774737D01*
X171993304Y-102801315D01*
X171977769Y-102838818D01*
X171958815Y-102897155D01*
X171930967Y-102951809D01*
X171915434Y-102989310D01*
X171900380Y-103011838D01*
X171884884Y-103042253D01*
X171824818Y-103124925D01*
X171802385Y-103158500D01*
X171795218Y-103165666D01*
X171789161Y-103174004D01*
X171674004Y-103289161D01*
X171665666Y-103295218D01*
X171658500Y-103302385D01*
X171624925Y-103324818D01*
X171542253Y-103384884D01*
X171511838Y-103400380D01*
X171489310Y-103415434D01*
X171451809Y-103430967D01*
X171397155Y-103458815D01*
X171338818Y-103477769D01*
X171301315Y-103493304D01*
X171274737Y-103498590D01*
X171242273Y-103509139D01*
X171141333Y-103525126D01*
X171101742Y-103533002D01*
X171091612Y-103533002D01*
X171081428Y-103534615D01*
X170918572Y-103534615D01*
X170908388Y-103533002D01*
X170898258Y-103533002D01*
X170858667Y-103525126D01*
X170757726Y-103509139D01*
X170725259Y-103498590D01*
X170698685Y-103493304D01*
X170661185Y-103477771D01*
X170602844Y-103458815D01*
X170548185Y-103430965D01*
X170510690Y-103415434D01*
X170488164Y-103400383D01*
X170457746Y-103384884D01*
X170375062Y-103324810D01*
X170341500Y-103302385D01*
X170334336Y-103295221D01*
X170325995Y-103289161D01*
X170210838Y-103174004D01*
X170204777Y-103165662D01*
X170197615Y-103158500D01*
X170175192Y-103124942D01*
X170115115Y-103042253D01*
X170099614Y-103011832D01*
X170084566Y-102989310D01*
X170069037Y-102951819D01*
X170041184Y-102897155D01*
X170022225Y-102838806D01*
X170006696Y-102801315D01*
X170001410Y-102774745D01*
X169990860Y-102742273D01*
X169974872Y-102641327D01*
X169966998Y-102601742D01*
X169966998Y-102591611D01*
X169965385Y-102581427D01*
X169965385Y-102418572D01*
X169966998Y-102408387D01*
X169966998Y-102398258D01*
X169974871Y-102358676D01*
X169990860Y-102257726D01*
X170001411Y-102225251D01*
X170006696Y-102198685D01*
X170022224Y-102161196D01*
X170041184Y-102102844D01*
X170069039Y-102048174D01*
X170084566Y-102010690D01*
X170099612Y-101988170D01*
X170115115Y-101957746D01*
X170175200Y-101875045D01*
X170197615Y-101841500D01*
X170204774Y-101834340D01*
X170210838Y-101825995D01*
X170325995Y-101710838D01*
X170334340Y-101704774D01*
X170341500Y-101697615D01*
X170375045Y-101675200D01*
X170457746Y-101615115D01*
X170488170Y-101599612D01*
X170510690Y-101584566D01*
X170548174Y-101569039D01*
X170602844Y-101541184D01*
X170661196Y-101522224D01*
X170698685Y-101506696D01*
X170725251Y-101501411D01*
X170757726Y-101490860D01*
X170858676Y-101474871D01*
X170898258Y-101466998D01*
X170908388Y-101466998D01*
X170918572Y-101465385D01*
X171081428Y-101465385D01*
X171091612Y-101466998D01*
G37*
G36*
X164438940Y-98076488D02*
G01*
X164445019Y-98079459D01*
X164446958Y-98079767D01*
X164478005Y-98095586D01*
X164542005Y-98126874D01*
X164623126Y-98207995D01*
X164654425Y-98272018D01*
X164670232Y-98303041D01*
X164670538Y-98304978D01*
X164673512Y-98311060D01*
X164688000Y-98410500D01*
X164688000Y-100289500D01*
X164673512Y-100388940D01*
X164670538Y-100395022D01*
X164670232Y-100396958D01*
X164654437Y-100427956D01*
X164623126Y-100492005D01*
X164542005Y-100573126D01*
X164477956Y-100604437D01*
X164446958Y-100620232D01*
X164445022Y-100620538D01*
X164438940Y-100623512D01*
X164339500Y-100638000D01*
X162660500Y-100638000D01*
X162561060Y-100623512D01*
X162554978Y-100620538D01*
X162553041Y-100620232D01*
X162522018Y-100604425D01*
X162457995Y-100573126D01*
X162376874Y-100492005D01*
X162345586Y-100428005D01*
X162329767Y-100396958D01*
X162329459Y-100395019D01*
X162326488Y-100388940D01*
X162312000Y-100289500D01*
X162312000Y-98410500D01*
X162326488Y-98311060D01*
X162329459Y-98304981D01*
X162329767Y-98303041D01*
X162345598Y-98271970D01*
X162376874Y-98207995D01*
X162457995Y-98126874D01*
X162521970Y-98095598D01*
X162553041Y-98079767D01*
X162554981Y-98079459D01*
X162561060Y-98076488D01*
X162660500Y-98062000D01*
X164339500Y-98062000D01*
X164438940Y-98076488D01*
G37*
G36*
X184359039Y-84304495D02*
G01*
X184588567Y-84379073D01*
X184803603Y-84488639D01*
X184998851Y-84630496D01*
X185169504Y-84801149D01*
X185311361Y-84996397D01*
X185420927Y-85211433D01*
X185495505Y-85440961D01*
X185533259Y-85679330D01*
X185533259Y-85920670D01*
X185495505Y-86159039D01*
X185420927Y-86388567D01*
X185311361Y-86603603D01*
X185169504Y-86798851D01*
X184998851Y-86969504D01*
X184803603Y-87111361D01*
X184588567Y-87220927D01*
X184359039Y-87295505D01*
X184120670Y-87333259D01*
X183879330Y-87333259D01*
X183640961Y-87295505D01*
X183411433Y-87220927D01*
X183196397Y-87111361D01*
X183001149Y-86969504D01*
X182830496Y-86798851D01*
X182688639Y-86603603D01*
X182579073Y-86388567D01*
X182504495Y-86159039D01*
X182466741Y-85920670D01*
X182466741Y-85679330D01*
X182504495Y-85440961D01*
X182579073Y-85211433D01*
X182688639Y-84996397D01*
X182830496Y-84801149D01*
X183001149Y-84630496D01*
X183196397Y-84488639D01*
X183411433Y-84379073D01*
X183640961Y-84304495D01*
X183879330Y-84266741D01*
X184120670Y-84266741D01*
X184359039Y-84304495D01*
G37*
G36*
X204359039Y-84304495D02*
G01*
X204588567Y-84379073D01*
X204803603Y-84488639D01*
X204998851Y-84630496D01*
X205169504Y-84801149D01*
X205311361Y-84996397D01*
X205420927Y-85211433D01*
X205495505Y-85440961D01*
X205533259Y-85679330D01*
X205533259Y-85920670D01*
X205495505Y-86159039D01*
X205420927Y-86388567D01*
X205311361Y-86603603D01*
X205169504Y-86798851D01*
X204998851Y-86969504D01*
X204803603Y-87111361D01*
X204588567Y-87220927D01*
X204359039Y-87295505D01*
X204120670Y-87333259D01*
X203879330Y-87333259D01*
X203640961Y-87295505D01*
X203411433Y-87220927D01*
X203196397Y-87111361D01*
X203001149Y-86969504D01*
X202830496Y-86798851D01*
X202688639Y-86603603D01*
X202579073Y-86388567D01*
X202504495Y-86159039D01*
X202466741Y-85920670D01*
X202466741Y-85679330D01*
X202504495Y-85440961D01*
X202579073Y-85211433D01*
X202688639Y-84996397D01*
X202830496Y-84801149D01*
X203001149Y-84630496D01*
X203196397Y-84488639D01*
X203411433Y-84379073D01*
X203640961Y-84304495D01*
X203879330Y-84266741D01*
X204120670Y-84266741D01*
X204359039Y-84304495D01*
G37*
G36*
X184359039Y-64304495D02*
G01*
X184588567Y-64379073D01*
X184803603Y-64488639D01*
X184998851Y-64630496D01*
X185169504Y-64801149D01*
X185311361Y-64996397D01*
X185420927Y-65211433D01*
X185495505Y-65440961D01*
X185533259Y-65679330D01*
X185533259Y-65920670D01*
X185495505Y-66159039D01*
X185420927Y-66388567D01*
X185311361Y-66603603D01*
X185169504Y-66798851D01*
X184998851Y-66969504D01*
X184803603Y-67111361D01*
X184588567Y-67220927D01*
X184359039Y-67295505D01*
X184120670Y-67333259D01*
X183879330Y-67333259D01*
X183640961Y-67295505D01*
X183411433Y-67220927D01*
X183196397Y-67111361D01*
X183001149Y-66969504D01*
X182830496Y-66798851D01*
X182688639Y-66603603D01*
X182579073Y-66388567D01*
X182504495Y-66159039D01*
X182466741Y-65920670D01*
X182466741Y-65679330D01*
X182504495Y-65440961D01*
X182579073Y-65211433D01*
X182688639Y-64996397D01*
X182830496Y-64801149D01*
X183001149Y-64630496D01*
X183196397Y-64488639D01*
X183411433Y-64379073D01*
X183640961Y-64304495D01*
X183879330Y-64266741D01*
X184120670Y-64266741D01*
X184359039Y-64304495D01*
G37*
G36*
X204359039Y-64304495D02*
G01*
X204588567Y-64379073D01*
X204803603Y-64488639D01*
X204998851Y-64630496D01*
X205169504Y-64801149D01*
X205311361Y-64996397D01*
X205420927Y-65211433D01*
X205495505Y-65440961D01*
X205533259Y-65679330D01*
X205533259Y-65920670D01*
X205495505Y-66159039D01*
X205420927Y-66388567D01*
X205311361Y-66603603D01*
X205169504Y-66798851D01*
X204998851Y-66969504D01*
X204803603Y-67111361D01*
X204588567Y-67220927D01*
X204359039Y-67295505D01*
X204120670Y-67333259D01*
X203879330Y-67333259D01*
X203640961Y-67295505D01*
X203411433Y-67220927D01*
X203196397Y-67111361D01*
X203001149Y-66969504D01*
X202830496Y-66798851D01*
X202688639Y-66603603D01*
X202579073Y-66388567D01*
X202504495Y-66159039D01*
X202466741Y-65920670D01*
X202466741Y-65679330D01*
X202504495Y-65440961D01*
X202579073Y-65211433D01*
X202688639Y-64996397D01*
X202830496Y-64801149D01*
X203001149Y-64630496D01*
X203196397Y-64488639D01*
X203411433Y-64379073D01*
X203640961Y-64304495D01*
X203879330Y-64266741D01*
X204120670Y-64266741D01*
X204359039Y-64304495D01*
G37*
G36*
X144589034Y-57855764D02*
G01*
X144622125Y-57877875D01*
X144644236Y-57910966D01*
X144652000Y-57950000D01*
X144652000Y-60050000D01*
X144644236Y-60089034D01*
X144622125Y-60122125D01*
X144589034Y-60144236D01*
X144550000Y-60152000D01*
X142450000Y-60152000D01*
X142410966Y-60144236D01*
X142377875Y-60122125D01*
X142355764Y-60089034D01*
X142348000Y-60050000D01*
X142348000Y-57950000D01*
X142355764Y-57910966D01*
X142377875Y-57877875D01*
X142410966Y-57855764D01*
X142450000Y-57848000D01*
X144550000Y-57848000D01*
X144589034Y-57855764D01*
G37*
G36*
X161359034Y-57855764D02*
G01*
X161392125Y-57877875D01*
X161414236Y-57910966D01*
X161422000Y-57950000D01*
X161422000Y-60050000D01*
X161414236Y-60089034D01*
X161392125Y-60122125D01*
X161359034Y-60144236D01*
X161320000Y-60152000D01*
X159220000Y-60152000D01*
X159180966Y-60144236D01*
X159147875Y-60122125D01*
X159125764Y-60089034D01*
X159118000Y-60050000D01*
X159118000Y-57950000D01*
X159125764Y-57910966D01*
X159147875Y-57877875D01*
X159180966Y-57855764D01*
X159220000Y-57848000D01*
X161320000Y-57848000D01*
X161359034Y-57855764D01*
G37*
G36*
X148768929Y-57879830D02*
G01*
X148940851Y-57935691D01*
X149101918Y-58017759D01*
X149248164Y-58124012D01*
X149375988Y-58251836D01*
X149482241Y-58398082D01*
X149564309Y-58559149D01*
X149620170Y-58731071D01*
X149648449Y-58909615D01*
X149648449Y-59090385D01*
X149620170Y-59268929D01*
X149564309Y-59440851D01*
X149482241Y-59601918D01*
X149375988Y-59748164D01*
X149248164Y-59875988D01*
X149101918Y-59982241D01*
X148940851Y-60064309D01*
X148768929Y-60120170D01*
X148590385Y-60148449D01*
X148409615Y-60148449D01*
X148231071Y-60120170D01*
X148059149Y-60064309D01*
X147898082Y-59982241D01*
X147751836Y-59875988D01*
X147624012Y-59748164D01*
X147517759Y-59601918D01*
X147435691Y-59440851D01*
X147379830Y-59268929D01*
X147351551Y-59090385D01*
X147351551Y-58909615D01*
X147379830Y-58731071D01*
X147435691Y-58559149D01*
X147517759Y-58398082D01*
X147624012Y-58251836D01*
X147751836Y-58124012D01*
X147898082Y-58017759D01*
X148059149Y-57935691D01*
X148231071Y-57879830D01*
X148409615Y-57851551D01*
X148590385Y-57851551D01*
X148768929Y-57879830D01*
G37*
G36*
X165538929Y-57879830D02*
G01*
X165710851Y-57935691D01*
X165871918Y-58017759D01*
X166018164Y-58124012D01*
X166145988Y-58251836D01*
X166252241Y-58398082D01*
X166334309Y-58559149D01*
X166390170Y-58731071D01*
X166418449Y-58909615D01*
X166418449Y-59090385D01*
X166390170Y-59268929D01*
X166334309Y-59440851D01*
X166252241Y-59601918D01*
X166145988Y-59748164D01*
X166018164Y-59875988D01*
X165871918Y-59982241D01*
X165710851Y-60064309D01*
X165538929Y-60120170D01*
X165360385Y-60148449D01*
X165179615Y-60148449D01*
X165001071Y-60120170D01*
X164829149Y-60064309D01*
X164668082Y-59982241D01*
X164521836Y-59875988D01*
X164394012Y-59748164D01*
X164287759Y-59601918D01*
X164205691Y-59440851D01*
X164149830Y-59268929D01*
X164121551Y-59090385D01*
X164121551Y-58909615D01*
X164149830Y-58731071D01*
X164205691Y-58559149D01*
X164287759Y-58398082D01*
X164394012Y-58251836D01*
X164521836Y-58124012D01*
X164668082Y-58017759D01*
X164829149Y-57935691D01*
X165001071Y-57879830D01*
X165179615Y-57851551D01*
X165360385Y-57851551D01*
X165538929Y-57879830D01*
G37*
G36*
X103444542Y-57114893D02*
G01*
X103456870Y-57123130D01*
X103465107Y-57135458D01*
X103468000Y-57150000D01*
X103468000Y-58850000D01*
X103465107Y-58864542D01*
X103456870Y-58876870D01*
X103444542Y-58885107D01*
X103430000Y-58888000D01*
X101730000Y-58888000D01*
X101715458Y-58885107D01*
X101703130Y-58876870D01*
X101694893Y-58864542D01*
X101692000Y-58850000D01*
X101692000Y-57150000D01*
X101694893Y-57135458D01*
X101703130Y-57123130D01*
X101715458Y-57114893D01*
X101730000Y-57112000D01*
X103430000Y-57112000D01*
X103444542Y-57114893D01*
G37*
G36*
X105377773Y-57150237D02*
G01*
X105538600Y-57216854D01*
X105683341Y-57313567D01*
X105806433Y-57436659D01*
X105903146Y-57581400D01*
X105969763Y-57742227D01*
X106003724Y-57912961D01*
X106003724Y-58087039D01*
X105969763Y-58257773D01*
X105903146Y-58418600D01*
X105806433Y-58563341D01*
X105683341Y-58686433D01*
X105538600Y-58783146D01*
X105377773Y-58849763D01*
X105207039Y-58883724D01*
X105032961Y-58883724D01*
X104862227Y-58849763D01*
X104701400Y-58783146D01*
X104556659Y-58686433D01*
X104433567Y-58563341D01*
X104336854Y-58418600D01*
X104270237Y-58257773D01*
X104236276Y-58087039D01*
X104236276Y-57912961D01*
X104270237Y-57742227D01*
X104336854Y-57581400D01*
X104433567Y-57436659D01*
X104556659Y-57313567D01*
X104701400Y-57216854D01*
X104862227Y-57150237D01*
X105032961Y-57116276D01*
X105207039Y-57116276D01*
X105377773Y-57150237D01*
G37*
G36*
X107917773Y-57150237D02*
G01*
X108078600Y-57216854D01*
X108223341Y-57313567D01*
X108346433Y-57436659D01*
X108443146Y-57581400D01*
X108509763Y-57742227D01*
X108543724Y-57912961D01*
X108543724Y-58087039D01*
X108509763Y-58257773D01*
X108443146Y-58418600D01*
X108346433Y-58563341D01*
X108223341Y-58686433D01*
X108078600Y-58783146D01*
X107917773Y-58849763D01*
X107747039Y-58883724D01*
X107572961Y-58883724D01*
X107402227Y-58849763D01*
X107241400Y-58783146D01*
X107096659Y-58686433D01*
X106973567Y-58563341D01*
X106876854Y-58418600D01*
X106810237Y-58257773D01*
X106776276Y-58087039D01*
X106776276Y-57912961D01*
X106810237Y-57742227D01*
X106876854Y-57581400D01*
X106973567Y-57436659D01*
X107096659Y-57313567D01*
X107241400Y-57216854D01*
X107402227Y-57150237D01*
X107572961Y-57116276D01*
X107747039Y-57116276D01*
X107917773Y-57150237D01*
G37*
G36*
X110457773Y-57150237D02*
G01*
X110618600Y-57216854D01*
X110763341Y-57313567D01*
X110886433Y-57436659D01*
X110983146Y-57581400D01*
X111049763Y-57742227D01*
X111083724Y-57912961D01*
X111083724Y-58087039D01*
X111049763Y-58257773D01*
X110983146Y-58418600D01*
X110886433Y-58563341D01*
X110763341Y-58686433D01*
X110618600Y-58783146D01*
X110457773Y-58849763D01*
X110287039Y-58883724D01*
X110112961Y-58883724D01*
X109942227Y-58849763D01*
X109781400Y-58783146D01*
X109636659Y-58686433D01*
X109513567Y-58563341D01*
X109416854Y-58418600D01*
X109350237Y-58257773D01*
X109316276Y-58087039D01*
X109316276Y-57912961D01*
X109350237Y-57742227D01*
X109416854Y-57581400D01*
X109513567Y-57436659D01*
X109636659Y-57313567D01*
X109781400Y-57216854D01*
X109942227Y-57150237D01*
X110112961Y-57116276D01*
X110287039Y-57116276D01*
X110457773Y-57150237D01*
G37*
G36*
X94359039Y-54504495D02*
G01*
X94588567Y-54579073D01*
X94803603Y-54688639D01*
X94998851Y-54830496D01*
X95169504Y-55001149D01*
X95311361Y-55196397D01*
X95420927Y-55411433D01*
X95495505Y-55640961D01*
X95533259Y-55879330D01*
X95533259Y-56120670D01*
X95495505Y-56359039D01*
X95420927Y-56588567D01*
X95311361Y-56803603D01*
X95169504Y-56998851D01*
X94998851Y-57169504D01*
X94803603Y-57311361D01*
X94588567Y-57420927D01*
X94359039Y-57495505D01*
X94120670Y-57533259D01*
X93879330Y-57533259D01*
X93640961Y-57495505D01*
X93411433Y-57420927D01*
X93196397Y-57311361D01*
X93001149Y-57169504D01*
X92830496Y-56998851D01*
X92688639Y-56803603D01*
X92579073Y-56588567D01*
X92504495Y-56359039D01*
X92466741Y-56120670D01*
X92466741Y-55879330D01*
X92504495Y-55640961D01*
X92579073Y-55411433D01*
X92688639Y-55196397D01*
X92830496Y-55001149D01*
X93001149Y-54830496D01*
X93196397Y-54688639D01*
X93411433Y-54579073D01*
X93640961Y-54504495D01*
X93879330Y-54466741D01*
X94120670Y-54466741D01*
X94359039Y-54504495D01*
G37*
G36*
X215359039Y-54504495D02*
G01*
X215588567Y-54579073D01*
X215803603Y-54688639D01*
X215998851Y-54830496D01*
X216169504Y-55001149D01*
X216311361Y-55196397D01*
X216420927Y-55411433D01*
X216495505Y-55640961D01*
X216533259Y-55879330D01*
X216533259Y-56120670D01*
X216495505Y-56359039D01*
X216420927Y-56588567D01*
X216311361Y-56803603D01*
X216169504Y-56998851D01*
X215998851Y-57169504D01*
X215803603Y-57311361D01*
X215588567Y-57420927D01*
X215359039Y-57495505D01*
X215120670Y-57533259D01*
X214879330Y-57533259D01*
X214640961Y-57495505D01*
X214411433Y-57420927D01*
X214196397Y-57311361D01*
X214001149Y-57169504D01*
X213830496Y-56998851D01*
X213688639Y-56803603D01*
X213579073Y-56588567D01*
X213504495Y-56359039D01*
X213466741Y-56120670D01*
X213466741Y-55879330D01*
X213504495Y-55640961D01*
X213579073Y-55411433D01*
X213688639Y-55196397D01*
X213830496Y-55001149D01*
X214001149Y-54830496D01*
X214196397Y-54688639D01*
X214411433Y-54579073D01*
X214640961Y-54504495D01*
X214879330Y-54466741D01*
X215120670Y-54466741D01*
X215359039Y-54504495D01*
G37*
%LPD*%
M02*
