%TF.GenerationSoftware,KiCad,Pcbnew,9.0.2*%
%TF.CreationDate,2025-08-06T23:35:29+02:00*%
%TF.ProjectId,Moto_HMI_v001,4d6f746f-5f48-44d4-995f-763030312e6b,rev?*%
%TF.SameCoordinates,Original*%
%TF.FileFunction,Drillmap*%
%TF.FilePolarity,Positive*%
%FSLAX45Y45*%
G04 Gerber Fmt 4.5, Leading zero omitted, Abs format (unit mm)*
G04 Created by KiCad (PCBNEW 9.0.2) date 2025-08-06 23:35:29*
%MOMM*%
%LPD*%
G01*
G04 APERTURE LIST*
%ADD10C,0.038100*%
%ADD11C,0.200000*%
%ADD12C,0.100000*%
%ADD13C,0.120000*%
%ADD14C,0.140000*%
G04 APERTURE END LIST*
D10*
X9400000Y-14180000D02*
G75*
G02*
X8900000Y-13680000I0J500000D01*
G01*
X21500000Y-5100000D02*
G75*
G02*
X22000000Y-5600000I0J-500000D01*
G01*
X8900000Y-13680000D02*
X8900000Y-5600000D01*
X8900000Y-5600000D02*
G75*
G02*
X9400000Y-5100000I500000J0D01*
G01*
X21500000Y-14180000D02*
X9400000Y-14180000D01*
X22000000Y-5600000D02*
X22000000Y-13680000D01*
X9400000Y-5100000D02*
X21500000Y-5100000D01*
X22000000Y-13680000D02*
G75*
G02*
X21500000Y-14180000I-500000J0D01*
G01*
D11*
D12*
X11265000Y-6625000D02*
X11295000Y-6655000D01*
X11295000Y-6625000D02*
X11265000Y-6655000D01*
X11285000Y-5785000D02*
X11315000Y-5815000D01*
X11315000Y-5785000D02*
X11285000Y-5815000D01*
X12008221Y-7603279D02*
X12038221Y-7633279D01*
X12038221Y-7603279D02*
X12008221Y-7633279D01*
X12395000Y-6375000D02*
X12425000Y-6405000D01*
X12425000Y-6375000D02*
X12395000Y-6405000D01*
X12525000Y-5225000D02*
X12555000Y-5255000D01*
X12555000Y-5225000D02*
X12525000Y-5255000D01*
X12525000Y-5475000D02*
X12555000Y-5505000D01*
X12555000Y-5475000D02*
X12525000Y-5505000D01*
X12525000Y-6375000D02*
X12555000Y-6405000D01*
X12555000Y-6375000D02*
X12525000Y-6405000D01*
X12665000Y-8052500D02*
X12695000Y-8082500D01*
X12695000Y-8052500D02*
X12665000Y-8082500D01*
X13535000Y-7715100D02*
X13565000Y-7745100D01*
X13565000Y-7715100D02*
X13535000Y-7745100D01*
X13585000Y-8002300D02*
X13615000Y-8032300D01*
X13615000Y-8002300D02*
X13585000Y-8032300D01*
X13705000Y-6575000D02*
X13735000Y-6605000D01*
X13735000Y-6575000D02*
X13705000Y-6605000D01*
X13788300Y-7885000D02*
X13818300Y-7915000D01*
X13818300Y-7885000D02*
X13788300Y-7915000D01*
X13835000Y-9179100D02*
X13865000Y-9209100D01*
X13865000Y-9179100D02*
X13835000Y-9209100D01*
X13835000Y-9325000D02*
X13865000Y-9355000D01*
X13865000Y-9325000D02*
X13835000Y-9355000D01*
X13865000Y-6045000D02*
X13895000Y-6075000D01*
X13895000Y-6045000D02*
X13865000Y-6075000D01*
X13937004Y-8725366D02*
X13967004Y-8755366D01*
X13967004Y-8725366D02*
X13937004Y-8755366D01*
X13937984Y-8912700D02*
X13967984Y-8942700D01*
X13967984Y-8912700D02*
X13937984Y-8942700D01*
X14005000Y-7415000D02*
X14035000Y-7445000D01*
X14035000Y-7415000D02*
X14005000Y-7445000D01*
X14010631Y-8902884D02*
X14040631Y-8932884D01*
X14040631Y-8902884D02*
X14010631Y-8932884D01*
X14055000Y-8507700D02*
X14085000Y-8537700D01*
X14085000Y-8507700D02*
X14055000Y-8537700D01*
X14059000Y-8402300D02*
X14089000Y-8432300D01*
X14089000Y-8402300D02*
X14059000Y-8432300D01*
X14113573Y-7795873D02*
X14143573Y-7825873D01*
X14143573Y-7795873D02*
X14113573Y-7825873D01*
X14245000Y-9315000D02*
X14275000Y-9345000D01*
X14275000Y-9315000D02*
X14245000Y-9345000D01*
X14645915Y-9321385D02*
X14675915Y-9351385D01*
X14675915Y-9321385D02*
X14645915Y-9351385D01*
X14715000Y-8355000D02*
X14745000Y-8385000D01*
X14745000Y-8355000D02*
X14715000Y-8385000D01*
X14785000Y-8885000D02*
X14815000Y-8915000D01*
X14815000Y-8885000D02*
X14785000Y-8915000D01*
X14832300Y-8465040D02*
X14862300Y-8495040D01*
X14862300Y-8465040D02*
X14832300Y-8495040D01*
X14832996Y-8294634D02*
X14862996Y-8324634D01*
X14862996Y-8294634D02*
X14832996Y-8324634D01*
X15668000Y-8788000D02*
X15698000Y-8818000D01*
X15698000Y-8788000D02*
X15668000Y-8818000D01*
X16225000Y-12075000D02*
X16255000Y-12105000D01*
X16255000Y-12075000D02*
X16225000Y-12105000D01*
X16225000Y-12405000D02*
X16255000Y-12435000D01*
X16255000Y-12405000D02*
X16225000Y-12435000D01*
X16225000Y-13215000D02*
X16255000Y-13245000D01*
X16255000Y-13215000D02*
X16225000Y-13245000D01*
X17335000Y-8885000D02*
X17365000Y-8915000D01*
X17365000Y-8885000D02*
X17335000Y-8915000D01*
X17685000Y-7805000D02*
X17715000Y-7835000D01*
X17715000Y-7805000D02*
X17685000Y-7835000D01*
X17685000Y-8165000D02*
X17715000Y-8195000D01*
X17715000Y-8165000D02*
X17685000Y-8195000D01*
X19165000Y-6875000D02*
X19195000Y-6905000D01*
X19195000Y-6875000D02*
X19165000Y-6905000D01*
X19575000Y-6865000D02*
X19605000Y-6895000D01*
X19605000Y-6865000D02*
X19575000Y-6895000D01*
X10308000Y-5800000D02*
G75*
G02*
X10208000Y-5800000I-50000J0D01*
G01*
X10208000Y-5800000D02*
G75*
G02*
X10308000Y-5800000I50000J0D01*
G01*
X10562000Y-5800000D02*
G75*
G02*
X10462000Y-5800000I-50000J0D01*
G01*
X10462000Y-5800000D02*
G75*
G02*
X10562000Y-5800000I50000J0D01*
G01*
X10816000Y-5800000D02*
G75*
G02*
X10716000Y-5800000I-50000J0D01*
G01*
X10716000Y-5800000D02*
G75*
G02*
X10816000Y-5800000I50000J0D01*
G01*
X11070000Y-5800000D02*
G75*
G02*
X10970000Y-5800000I-50000J0D01*
G01*
X10970000Y-5800000D02*
G75*
G02*
X11070000Y-5800000I50000J0D01*
G01*
X17150000Y-10250000D02*
G75*
G02*
X17050000Y-10250000I-50000J0D01*
G01*
X17050000Y-10250000D02*
G75*
G02*
X17150000Y-10250000I50000J0D01*
G01*
X17150000Y-10500000D02*
G75*
G02*
X17050000Y-10500000I-50000J0D01*
G01*
X17050000Y-10500000D02*
G75*
G02*
X17150000Y-10500000I50000J0D01*
G01*
X17150000Y-10750000D02*
G75*
G02*
X17050000Y-10750000I-50000J0D01*
G01*
X17050000Y-10750000D02*
G75*
G02*
X17150000Y-10750000I50000J0D01*
G01*
D13*
X16350000Y-9875000D02*
X16350000Y-9995000D01*
X16290000Y-9935000D02*
X16410000Y-9935000D01*
D12*
X16410000Y-9965000D02*
X16410000Y-9905000D01*
X16290000Y-9905000D02*
G75*
G02*
X16410000Y-9905000I60000J0D01*
G01*
X16290000Y-9905000D02*
X16290000Y-9965000D01*
X16290000Y-9965000D02*
G75*
G03*
X16410000Y-9965000I60000J0D01*
G01*
D13*
X16350000Y-11005000D02*
X16350000Y-11125000D01*
X16290000Y-11065000D02*
X16410000Y-11065000D01*
D12*
X16410000Y-11095000D02*
X16410000Y-11035000D01*
X16290000Y-11035000D02*
G75*
G02*
X16410000Y-11035000I60000J0D01*
G01*
X16290000Y-11035000D02*
X16290000Y-11095000D01*
X16290000Y-11095000D02*
G75*
G03*
X16410000Y-11095000I60000J0D01*
G01*
D14*
X14399498Y-5949498D02*
X14399498Y-5850502D01*
X14300502Y-5850502D01*
X14300502Y-5949498D01*
X14399498Y-5949498D01*
X14899498Y-5949498D02*
X14899498Y-5850502D01*
X14800502Y-5850502D01*
X14800502Y-5949498D01*
X14899498Y-5949498D01*
X16076498Y-5949498D02*
X16076498Y-5850502D01*
X15977502Y-5850502D01*
X15977502Y-5949498D01*
X16076498Y-5949498D01*
X16576498Y-5949498D02*
X16576498Y-5850502D01*
X16477502Y-5850502D01*
X16477502Y-5949498D01*
X16576498Y-5949498D01*
D11*
X9158872Y-14493389D02*
X9158872Y-14293389D01*
X9158872Y-14293389D02*
X9206491Y-14293389D01*
X9206491Y-14293389D02*
X9235062Y-14302913D01*
X9235062Y-14302913D02*
X9254110Y-14321960D01*
X9254110Y-14321960D02*
X9263634Y-14341008D01*
X9263634Y-14341008D02*
X9273158Y-14379103D01*
X9273158Y-14379103D02*
X9273158Y-14407674D01*
X9273158Y-14407674D02*
X9263634Y-14445770D01*
X9263634Y-14445770D02*
X9254110Y-14464817D01*
X9254110Y-14464817D02*
X9235062Y-14483865D01*
X9235062Y-14483865D02*
X9206491Y-14493389D01*
X9206491Y-14493389D02*
X9158872Y-14493389D01*
X9358872Y-14493389D02*
X9358872Y-14360055D01*
X9358872Y-14398151D02*
X9368396Y-14379103D01*
X9368396Y-14379103D02*
X9377919Y-14369579D01*
X9377919Y-14369579D02*
X9396967Y-14360055D01*
X9396967Y-14360055D02*
X9416015Y-14360055D01*
X9482681Y-14493389D02*
X9482681Y-14360055D01*
X9482681Y-14293389D02*
X9473158Y-14302913D01*
X9473158Y-14302913D02*
X9482681Y-14312436D01*
X9482681Y-14312436D02*
X9492205Y-14302913D01*
X9492205Y-14302913D02*
X9482681Y-14293389D01*
X9482681Y-14293389D02*
X9482681Y-14312436D01*
X9606491Y-14493389D02*
X9587443Y-14483865D01*
X9587443Y-14483865D02*
X9577919Y-14464817D01*
X9577919Y-14464817D02*
X9577919Y-14293389D01*
X9711253Y-14493389D02*
X9692205Y-14483865D01*
X9692205Y-14483865D02*
X9682681Y-14464817D01*
X9682681Y-14464817D02*
X9682681Y-14293389D01*
X9939824Y-14493389D02*
X9939824Y-14293389D01*
X9939824Y-14293389D02*
X10006491Y-14436246D01*
X10006491Y-14436246D02*
X10073158Y-14293389D01*
X10073158Y-14293389D02*
X10073158Y-14493389D01*
X10254110Y-14493389D02*
X10254110Y-14388627D01*
X10254110Y-14388627D02*
X10244586Y-14369579D01*
X10244586Y-14369579D02*
X10225539Y-14360055D01*
X10225539Y-14360055D02*
X10187443Y-14360055D01*
X10187443Y-14360055D02*
X10168396Y-14369579D01*
X10254110Y-14483865D02*
X10235062Y-14493389D01*
X10235062Y-14493389D02*
X10187443Y-14493389D01*
X10187443Y-14493389D02*
X10168396Y-14483865D01*
X10168396Y-14483865D02*
X10158872Y-14464817D01*
X10158872Y-14464817D02*
X10158872Y-14445770D01*
X10158872Y-14445770D02*
X10168396Y-14426722D01*
X10168396Y-14426722D02*
X10187443Y-14417198D01*
X10187443Y-14417198D02*
X10235062Y-14417198D01*
X10235062Y-14417198D02*
X10254110Y-14407674D01*
X10349348Y-14360055D02*
X10349348Y-14560055D01*
X10349348Y-14369579D02*
X10368396Y-14360055D01*
X10368396Y-14360055D02*
X10406491Y-14360055D01*
X10406491Y-14360055D02*
X10425539Y-14369579D01*
X10425539Y-14369579D02*
X10435062Y-14379103D01*
X10435062Y-14379103D02*
X10444586Y-14398151D01*
X10444586Y-14398151D02*
X10444586Y-14455293D01*
X10444586Y-14455293D02*
X10435062Y-14474341D01*
X10435062Y-14474341D02*
X10425539Y-14483865D01*
X10425539Y-14483865D02*
X10406491Y-14493389D01*
X10406491Y-14493389D02*
X10368396Y-14493389D01*
X10368396Y-14493389D02*
X10349348Y-14483865D01*
X10530300Y-14474341D02*
X10539824Y-14483865D01*
X10539824Y-14483865D02*
X10530300Y-14493389D01*
X10530300Y-14493389D02*
X10520777Y-14483865D01*
X10520777Y-14483865D02*
X10530300Y-14474341D01*
X10530300Y-14474341D02*
X10530300Y-14493389D01*
X10530300Y-14369579D02*
X10539824Y-14379103D01*
X10539824Y-14379103D02*
X10530300Y-14388627D01*
X10530300Y-14388627D02*
X10520777Y-14379103D01*
X10520777Y-14379103D02*
X10530300Y-14369579D01*
X10530300Y-14369579D02*
X10530300Y-14388627D01*
D12*
X8868095Y-14806905D02*
X8898095Y-14836905D01*
X8898095Y-14806905D02*
X8868095Y-14836905D01*
D11*
X9196967Y-14713389D02*
X9216015Y-14713389D01*
X9216015Y-14713389D02*
X9235062Y-14722913D01*
X9235062Y-14722913D02*
X9244586Y-14732436D01*
X9244586Y-14732436D02*
X9254110Y-14751484D01*
X9254110Y-14751484D02*
X9263634Y-14789579D01*
X9263634Y-14789579D02*
X9263634Y-14837198D01*
X9263634Y-14837198D02*
X9254110Y-14875293D01*
X9254110Y-14875293D02*
X9244586Y-14894341D01*
X9244586Y-14894341D02*
X9235062Y-14903865D01*
X9235062Y-14903865D02*
X9216015Y-14913389D01*
X9216015Y-14913389D02*
X9196967Y-14913389D01*
X9196967Y-14913389D02*
X9177919Y-14903865D01*
X9177919Y-14903865D02*
X9168396Y-14894341D01*
X9168396Y-14894341D02*
X9158872Y-14875293D01*
X9158872Y-14875293D02*
X9149348Y-14837198D01*
X9149348Y-14837198D02*
X9149348Y-14789579D01*
X9149348Y-14789579D02*
X9158872Y-14751484D01*
X9158872Y-14751484D02*
X9168396Y-14732436D01*
X9168396Y-14732436D02*
X9177919Y-14722913D01*
X9177919Y-14722913D02*
X9196967Y-14713389D01*
X9349348Y-14894341D02*
X9358872Y-14903865D01*
X9358872Y-14903865D02*
X9349348Y-14913389D01*
X9349348Y-14913389D02*
X9339824Y-14903865D01*
X9339824Y-14903865D02*
X9349348Y-14894341D01*
X9349348Y-14894341D02*
X9349348Y-14913389D01*
X9425539Y-14713389D02*
X9549348Y-14713389D01*
X9549348Y-14713389D02*
X9482681Y-14789579D01*
X9482681Y-14789579D02*
X9511253Y-14789579D01*
X9511253Y-14789579D02*
X9530300Y-14799103D01*
X9530300Y-14799103D02*
X9539824Y-14808627D01*
X9539824Y-14808627D02*
X9549348Y-14827674D01*
X9549348Y-14827674D02*
X9549348Y-14875293D01*
X9549348Y-14875293D02*
X9539824Y-14894341D01*
X9539824Y-14894341D02*
X9530300Y-14903865D01*
X9530300Y-14903865D02*
X9511253Y-14913389D01*
X9511253Y-14913389D02*
X9454110Y-14913389D01*
X9454110Y-14913389D02*
X9435062Y-14903865D01*
X9435062Y-14903865D02*
X9425539Y-14894341D01*
X9673158Y-14713389D02*
X9692205Y-14713389D01*
X9692205Y-14713389D02*
X9711253Y-14722913D01*
X9711253Y-14722913D02*
X9720777Y-14732436D01*
X9720777Y-14732436D02*
X9730300Y-14751484D01*
X9730300Y-14751484D02*
X9739824Y-14789579D01*
X9739824Y-14789579D02*
X9739824Y-14837198D01*
X9739824Y-14837198D02*
X9730300Y-14875293D01*
X9730300Y-14875293D02*
X9720777Y-14894341D01*
X9720777Y-14894341D02*
X9711253Y-14903865D01*
X9711253Y-14903865D02*
X9692205Y-14913389D01*
X9692205Y-14913389D02*
X9673158Y-14913389D01*
X9673158Y-14913389D02*
X9654110Y-14903865D01*
X9654110Y-14903865D02*
X9644586Y-14894341D01*
X9644586Y-14894341D02*
X9635062Y-14875293D01*
X9635062Y-14875293D02*
X9625539Y-14837198D01*
X9625539Y-14837198D02*
X9625539Y-14789579D01*
X9625539Y-14789579D02*
X9635062Y-14751484D01*
X9635062Y-14751484D02*
X9644586Y-14732436D01*
X9644586Y-14732436D02*
X9654110Y-14722913D01*
X9654110Y-14722913D02*
X9673158Y-14713389D01*
X9863634Y-14713389D02*
X9882681Y-14713389D01*
X9882681Y-14713389D02*
X9901729Y-14722913D01*
X9901729Y-14722913D02*
X9911253Y-14732436D01*
X9911253Y-14732436D02*
X9920777Y-14751484D01*
X9920777Y-14751484D02*
X9930300Y-14789579D01*
X9930300Y-14789579D02*
X9930300Y-14837198D01*
X9930300Y-14837198D02*
X9920777Y-14875293D01*
X9920777Y-14875293D02*
X9911253Y-14894341D01*
X9911253Y-14894341D02*
X9901729Y-14903865D01*
X9901729Y-14903865D02*
X9882681Y-14913389D01*
X9882681Y-14913389D02*
X9863634Y-14913389D01*
X9863634Y-14913389D02*
X9844586Y-14903865D01*
X9844586Y-14903865D02*
X9835062Y-14894341D01*
X9835062Y-14894341D02*
X9825539Y-14875293D01*
X9825539Y-14875293D02*
X9816015Y-14837198D01*
X9816015Y-14837198D02*
X9816015Y-14789579D01*
X9816015Y-14789579D02*
X9825539Y-14751484D01*
X9825539Y-14751484D02*
X9835062Y-14732436D01*
X9835062Y-14732436D02*
X9844586Y-14722913D01*
X9844586Y-14722913D02*
X9863634Y-14713389D01*
X10016015Y-14913389D02*
X10016015Y-14780055D01*
X10016015Y-14799103D02*
X10025539Y-14789579D01*
X10025539Y-14789579D02*
X10044586Y-14780055D01*
X10044586Y-14780055D02*
X10073158Y-14780055D01*
X10073158Y-14780055D02*
X10092205Y-14789579D01*
X10092205Y-14789579D02*
X10101729Y-14808627D01*
X10101729Y-14808627D02*
X10101729Y-14913389D01*
X10101729Y-14808627D02*
X10111253Y-14789579D01*
X10111253Y-14789579D02*
X10130300Y-14780055D01*
X10130300Y-14780055D02*
X10158872Y-14780055D01*
X10158872Y-14780055D02*
X10177920Y-14789579D01*
X10177920Y-14789579D02*
X10187443Y-14808627D01*
X10187443Y-14808627D02*
X10187443Y-14913389D01*
X10282681Y-14913389D02*
X10282681Y-14780055D01*
X10282681Y-14799103D02*
X10292205Y-14789579D01*
X10292205Y-14789579D02*
X10311253Y-14780055D01*
X10311253Y-14780055D02*
X10339824Y-14780055D01*
X10339824Y-14780055D02*
X10358872Y-14789579D01*
X10358872Y-14789579D02*
X10368396Y-14808627D01*
X10368396Y-14808627D02*
X10368396Y-14913389D01*
X10368396Y-14808627D02*
X10377920Y-14789579D01*
X10377920Y-14789579D02*
X10396967Y-14780055D01*
X10396967Y-14780055D02*
X10425539Y-14780055D01*
X10425539Y-14780055D02*
X10444586Y-14789579D01*
X10444586Y-14789579D02*
X10454110Y-14808627D01*
X10454110Y-14808627D02*
X10454110Y-14913389D01*
X10844586Y-14703865D02*
X10673158Y-14961008D01*
X11101729Y-14713389D02*
X11120777Y-14713389D01*
X11120777Y-14713389D02*
X11139824Y-14722913D01*
X11139824Y-14722913D02*
X11149348Y-14732436D01*
X11149348Y-14732436D02*
X11158872Y-14751484D01*
X11158872Y-14751484D02*
X11168396Y-14789579D01*
X11168396Y-14789579D02*
X11168396Y-14837198D01*
X11168396Y-14837198D02*
X11158872Y-14875293D01*
X11158872Y-14875293D02*
X11149348Y-14894341D01*
X11149348Y-14894341D02*
X11139824Y-14903865D01*
X11139824Y-14903865D02*
X11120777Y-14913389D01*
X11120777Y-14913389D02*
X11101729Y-14913389D01*
X11101729Y-14913389D02*
X11082682Y-14903865D01*
X11082682Y-14903865D02*
X11073158Y-14894341D01*
X11073158Y-14894341D02*
X11063634Y-14875293D01*
X11063634Y-14875293D02*
X11054110Y-14837198D01*
X11054110Y-14837198D02*
X11054110Y-14789579D01*
X11054110Y-14789579D02*
X11063634Y-14751484D01*
X11063634Y-14751484D02*
X11073158Y-14732436D01*
X11073158Y-14732436D02*
X11082682Y-14722913D01*
X11082682Y-14722913D02*
X11101729Y-14713389D01*
X11254110Y-14894341D02*
X11263634Y-14903865D01*
X11263634Y-14903865D02*
X11254110Y-14913389D01*
X11254110Y-14913389D02*
X11244586Y-14903865D01*
X11244586Y-14903865D02*
X11254110Y-14894341D01*
X11254110Y-14894341D02*
X11254110Y-14913389D01*
X11387443Y-14713389D02*
X11406491Y-14713389D01*
X11406491Y-14713389D02*
X11425539Y-14722913D01*
X11425539Y-14722913D02*
X11435062Y-14732436D01*
X11435062Y-14732436D02*
X11444586Y-14751484D01*
X11444586Y-14751484D02*
X11454110Y-14789579D01*
X11454110Y-14789579D02*
X11454110Y-14837198D01*
X11454110Y-14837198D02*
X11444586Y-14875293D01*
X11444586Y-14875293D02*
X11435062Y-14894341D01*
X11435062Y-14894341D02*
X11425539Y-14903865D01*
X11425539Y-14903865D02*
X11406491Y-14913389D01*
X11406491Y-14913389D02*
X11387443Y-14913389D01*
X11387443Y-14913389D02*
X11368396Y-14903865D01*
X11368396Y-14903865D02*
X11358872Y-14894341D01*
X11358872Y-14894341D02*
X11349348Y-14875293D01*
X11349348Y-14875293D02*
X11339824Y-14837198D01*
X11339824Y-14837198D02*
X11339824Y-14789579D01*
X11339824Y-14789579D02*
X11349348Y-14751484D01*
X11349348Y-14751484D02*
X11358872Y-14732436D01*
X11358872Y-14732436D02*
X11368396Y-14722913D01*
X11368396Y-14722913D02*
X11387443Y-14713389D01*
X11644586Y-14913389D02*
X11530301Y-14913389D01*
X11587443Y-14913389D02*
X11587443Y-14713389D01*
X11587443Y-14713389D02*
X11568396Y-14741960D01*
X11568396Y-14741960D02*
X11549348Y-14761008D01*
X11549348Y-14761008D02*
X11530301Y-14770532D01*
X11835062Y-14913389D02*
X11720777Y-14913389D01*
X11777920Y-14913389D02*
X11777920Y-14713389D01*
X11777920Y-14713389D02*
X11758872Y-14741960D01*
X11758872Y-14741960D02*
X11739824Y-14761008D01*
X11739824Y-14761008D02*
X11720777Y-14770532D01*
X11949348Y-14799103D02*
X11930301Y-14789579D01*
X11930301Y-14789579D02*
X11920777Y-14780055D01*
X11920777Y-14780055D02*
X11911253Y-14761008D01*
X11911253Y-14761008D02*
X11911253Y-14751484D01*
X11911253Y-14751484D02*
X11920777Y-14732436D01*
X11920777Y-14732436D02*
X11930301Y-14722913D01*
X11930301Y-14722913D02*
X11949348Y-14713389D01*
X11949348Y-14713389D02*
X11987443Y-14713389D01*
X11987443Y-14713389D02*
X12006491Y-14722913D01*
X12006491Y-14722913D02*
X12016015Y-14732436D01*
X12016015Y-14732436D02*
X12025539Y-14751484D01*
X12025539Y-14751484D02*
X12025539Y-14761008D01*
X12025539Y-14761008D02*
X12016015Y-14780055D01*
X12016015Y-14780055D02*
X12006491Y-14789579D01*
X12006491Y-14789579D02*
X11987443Y-14799103D01*
X11987443Y-14799103D02*
X11949348Y-14799103D01*
X11949348Y-14799103D02*
X11930301Y-14808627D01*
X11930301Y-14808627D02*
X11920777Y-14818151D01*
X11920777Y-14818151D02*
X11911253Y-14837198D01*
X11911253Y-14837198D02*
X11911253Y-14875293D01*
X11911253Y-14875293D02*
X11920777Y-14894341D01*
X11920777Y-14894341D02*
X11930301Y-14903865D01*
X11930301Y-14903865D02*
X11949348Y-14913389D01*
X11949348Y-14913389D02*
X11987443Y-14913389D01*
X11987443Y-14913389D02*
X12006491Y-14903865D01*
X12006491Y-14903865D02*
X12016015Y-14894341D01*
X12016015Y-14894341D02*
X12025539Y-14875293D01*
X12025539Y-14875293D02*
X12025539Y-14837198D01*
X12025539Y-14837198D02*
X12016015Y-14818151D01*
X12016015Y-14818151D02*
X12006491Y-14808627D01*
X12006491Y-14808627D02*
X11987443Y-14799103D01*
X12101729Y-14713389D02*
X12101729Y-14751484D01*
X12177920Y-14713389D02*
X12177920Y-14751484D01*
X12473158Y-14989579D02*
X12463634Y-14980055D01*
X12463634Y-14980055D02*
X12444586Y-14951484D01*
X12444586Y-14951484D02*
X12435063Y-14932436D01*
X12435063Y-14932436D02*
X12425539Y-14903865D01*
X12425539Y-14903865D02*
X12416015Y-14856246D01*
X12416015Y-14856246D02*
X12416015Y-14818151D01*
X12416015Y-14818151D02*
X12425539Y-14770532D01*
X12425539Y-14770532D02*
X12435063Y-14741960D01*
X12435063Y-14741960D02*
X12444586Y-14722913D01*
X12444586Y-14722913D02*
X12463634Y-14694341D01*
X12463634Y-14694341D02*
X12473158Y-14684817D01*
X12530301Y-14713389D02*
X12654110Y-14713389D01*
X12654110Y-14713389D02*
X12587443Y-14789579D01*
X12587443Y-14789579D02*
X12616015Y-14789579D01*
X12616015Y-14789579D02*
X12635063Y-14799103D01*
X12635063Y-14799103D02*
X12644586Y-14808627D01*
X12644586Y-14808627D02*
X12654110Y-14827674D01*
X12654110Y-14827674D02*
X12654110Y-14875293D01*
X12654110Y-14875293D02*
X12644586Y-14894341D01*
X12644586Y-14894341D02*
X12635063Y-14903865D01*
X12635063Y-14903865D02*
X12616015Y-14913389D01*
X12616015Y-14913389D02*
X12558872Y-14913389D01*
X12558872Y-14913389D02*
X12539824Y-14903865D01*
X12539824Y-14903865D02*
X12530301Y-14894341D01*
X12720777Y-14713389D02*
X12854110Y-14713389D01*
X12854110Y-14713389D02*
X12768396Y-14913389D01*
X13082682Y-14913389D02*
X13082682Y-14713389D01*
X13168396Y-14913389D02*
X13168396Y-14808627D01*
X13168396Y-14808627D02*
X13158872Y-14789579D01*
X13158872Y-14789579D02*
X13139825Y-14780055D01*
X13139825Y-14780055D02*
X13111253Y-14780055D01*
X13111253Y-14780055D02*
X13092205Y-14789579D01*
X13092205Y-14789579D02*
X13082682Y-14799103D01*
X13292205Y-14913389D02*
X13273158Y-14903865D01*
X13273158Y-14903865D02*
X13263634Y-14894341D01*
X13263634Y-14894341D02*
X13254110Y-14875293D01*
X13254110Y-14875293D02*
X13254110Y-14818151D01*
X13254110Y-14818151D02*
X13263634Y-14799103D01*
X13263634Y-14799103D02*
X13273158Y-14789579D01*
X13273158Y-14789579D02*
X13292205Y-14780055D01*
X13292205Y-14780055D02*
X13320777Y-14780055D01*
X13320777Y-14780055D02*
X13339825Y-14789579D01*
X13339825Y-14789579D02*
X13349348Y-14799103D01*
X13349348Y-14799103D02*
X13358872Y-14818151D01*
X13358872Y-14818151D02*
X13358872Y-14875293D01*
X13358872Y-14875293D02*
X13349348Y-14894341D01*
X13349348Y-14894341D02*
X13339825Y-14903865D01*
X13339825Y-14903865D02*
X13320777Y-14913389D01*
X13320777Y-14913389D02*
X13292205Y-14913389D01*
X13473158Y-14913389D02*
X13454110Y-14903865D01*
X13454110Y-14903865D02*
X13444586Y-14884817D01*
X13444586Y-14884817D02*
X13444586Y-14713389D01*
X13625539Y-14903865D02*
X13606491Y-14913389D01*
X13606491Y-14913389D02*
X13568396Y-14913389D01*
X13568396Y-14913389D02*
X13549348Y-14903865D01*
X13549348Y-14903865D02*
X13539825Y-14884817D01*
X13539825Y-14884817D02*
X13539825Y-14808627D01*
X13539825Y-14808627D02*
X13549348Y-14789579D01*
X13549348Y-14789579D02*
X13568396Y-14780055D01*
X13568396Y-14780055D02*
X13606491Y-14780055D01*
X13606491Y-14780055D02*
X13625539Y-14789579D01*
X13625539Y-14789579D02*
X13635063Y-14808627D01*
X13635063Y-14808627D02*
X13635063Y-14827674D01*
X13635063Y-14827674D02*
X13539825Y-14846722D01*
X13711253Y-14903865D02*
X13730301Y-14913389D01*
X13730301Y-14913389D02*
X13768396Y-14913389D01*
X13768396Y-14913389D02*
X13787444Y-14903865D01*
X13787444Y-14903865D02*
X13796967Y-14884817D01*
X13796967Y-14884817D02*
X13796967Y-14875293D01*
X13796967Y-14875293D02*
X13787444Y-14856246D01*
X13787444Y-14856246D02*
X13768396Y-14846722D01*
X13768396Y-14846722D02*
X13739825Y-14846722D01*
X13739825Y-14846722D02*
X13720777Y-14837198D01*
X13720777Y-14837198D02*
X13711253Y-14818151D01*
X13711253Y-14818151D02*
X13711253Y-14808627D01*
X13711253Y-14808627D02*
X13720777Y-14789579D01*
X13720777Y-14789579D02*
X13739825Y-14780055D01*
X13739825Y-14780055D02*
X13768396Y-14780055D01*
X13768396Y-14780055D02*
X13787444Y-14789579D01*
X13863634Y-14989579D02*
X13873158Y-14980055D01*
X13873158Y-14980055D02*
X13892206Y-14951484D01*
X13892206Y-14951484D02*
X13901729Y-14932436D01*
X13901729Y-14932436D02*
X13911253Y-14903865D01*
X13911253Y-14903865D02*
X13920777Y-14856246D01*
X13920777Y-14856246D02*
X13920777Y-14818151D01*
X13920777Y-14818151D02*
X13911253Y-14770532D01*
X13911253Y-14770532D02*
X13901729Y-14741960D01*
X13901729Y-14741960D02*
X13892206Y-14722913D01*
X13892206Y-14722913D02*
X13873158Y-14694341D01*
X13873158Y-14694341D02*
X13863634Y-14684817D01*
D12*
X8898095Y-15085905D02*
G75*
G02*
X8798095Y-15085905I-50000J0D01*
G01*
X8798095Y-15085905D02*
G75*
G02*
X8898095Y-15085905I50000J0D01*
G01*
D11*
X9263634Y-15177389D02*
X9149348Y-15177389D01*
X9206491Y-15177389D02*
X9206491Y-14977389D01*
X9206491Y-14977389D02*
X9187443Y-15005960D01*
X9187443Y-15005960D02*
X9168396Y-15025008D01*
X9168396Y-15025008D02*
X9149348Y-15034532D01*
X9349348Y-15158341D02*
X9358872Y-15167865D01*
X9358872Y-15167865D02*
X9349348Y-15177389D01*
X9349348Y-15177389D02*
X9339824Y-15167865D01*
X9339824Y-15167865D02*
X9349348Y-15158341D01*
X9349348Y-15158341D02*
X9349348Y-15177389D01*
X9482681Y-14977389D02*
X9501729Y-14977389D01*
X9501729Y-14977389D02*
X9520777Y-14986913D01*
X9520777Y-14986913D02*
X9530300Y-14996436D01*
X9530300Y-14996436D02*
X9539824Y-15015484D01*
X9539824Y-15015484D02*
X9549348Y-15053579D01*
X9549348Y-15053579D02*
X9549348Y-15101198D01*
X9549348Y-15101198D02*
X9539824Y-15139293D01*
X9539824Y-15139293D02*
X9530300Y-15158341D01*
X9530300Y-15158341D02*
X9520777Y-15167865D01*
X9520777Y-15167865D02*
X9501729Y-15177389D01*
X9501729Y-15177389D02*
X9482681Y-15177389D01*
X9482681Y-15177389D02*
X9463634Y-15167865D01*
X9463634Y-15167865D02*
X9454110Y-15158341D01*
X9454110Y-15158341D02*
X9444586Y-15139293D01*
X9444586Y-15139293D02*
X9435062Y-15101198D01*
X9435062Y-15101198D02*
X9435062Y-15053579D01*
X9435062Y-15053579D02*
X9444586Y-15015484D01*
X9444586Y-15015484D02*
X9454110Y-14996436D01*
X9454110Y-14996436D02*
X9463634Y-14986913D01*
X9463634Y-14986913D02*
X9482681Y-14977389D01*
X9673158Y-14977389D02*
X9692205Y-14977389D01*
X9692205Y-14977389D02*
X9711253Y-14986913D01*
X9711253Y-14986913D02*
X9720777Y-14996436D01*
X9720777Y-14996436D02*
X9730300Y-15015484D01*
X9730300Y-15015484D02*
X9739824Y-15053579D01*
X9739824Y-15053579D02*
X9739824Y-15101198D01*
X9739824Y-15101198D02*
X9730300Y-15139293D01*
X9730300Y-15139293D02*
X9720777Y-15158341D01*
X9720777Y-15158341D02*
X9711253Y-15167865D01*
X9711253Y-15167865D02*
X9692205Y-15177389D01*
X9692205Y-15177389D02*
X9673158Y-15177389D01*
X9673158Y-15177389D02*
X9654110Y-15167865D01*
X9654110Y-15167865D02*
X9644586Y-15158341D01*
X9644586Y-15158341D02*
X9635062Y-15139293D01*
X9635062Y-15139293D02*
X9625539Y-15101198D01*
X9625539Y-15101198D02*
X9625539Y-15053579D01*
X9625539Y-15053579D02*
X9635062Y-15015484D01*
X9635062Y-15015484D02*
X9644586Y-14996436D01*
X9644586Y-14996436D02*
X9654110Y-14986913D01*
X9654110Y-14986913D02*
X9673158Y-14977389D01*
X9863634Y-14977389D02*
X9882681Y-14977389D01*
X9882681Y-14977389D02*
X9901729Y-14986913D01*
X9901729Y-14986913D02*
X9911253Y-14996436D01*
X9911253Y-14996436D02*
X9920777Y-15015484D01*
X9920777Y-15015484D02*
X9930300Y-15053579D01*
X9930300Y-15053579D02*
X9930300Y-15101198D01*
X9930300Y-15101198D02*
X9920777Y-15139293D01*
X9920777Y-15139293D02*
X9911253Y-15158341D01*
X9911253Y-15158341D02*
X9901729Y-15167865D01*
X9901729Y-15167865D02*
X9882681Y-15177389D01*
X9882681Y-15177389D02*
X9863634Y-15177389D01*
X9863634Y-15177389D02*
X9844586Y-15167865D01*
X9844586Y-15167865D02*
X9835062Y-15158341D01*
X9835062Y-15158341D02*
X9825539Y-15139293D01*
X9825539Y-15139293D02*
X9816015Y-15101198D01*
X9816015Y-15101198D02*
X9816015Y-15053579D01*
X9816015Y-15053579D02*
X9825539Y-15015484D01*
X9825539Y-15015484D02*
X9835062Y-14996436D01*
X9835062Y-14996436D02*
X9844586Y-14986913D01*
X9844586Y-14986913D02*
X9863634Y-14977389D01*
X10016015Y-15177389D02*
X10016015Y-15044055D01*
X10016015Y-15063103D02*
X10025539Y-15053579D01*
X10025539Y-15053579D02*
X10044586Y-15044055D01*
X10044586Y-15044055D02*
X10073158Y-15044055D01*
X10073158Y-15044055D02*
X10092205Y-15053579D01*
X10092205Y-15053579D02*
X10101729Y-15072627D01*
X10101729Y-15072627D02*
X10101729Y-15177389D01*
X10101729Y-15072627D02*
X10111253Y-15053579D01*
X10111253Y-15053579D02*
X10130300Y-15044055D01*
X10130300Y-15044055D02*
X10158872Y-15044055D01*
X10158872Y-15044055D02*
X10177920Y-15053579D01*
X10177920Y-15053579D02*
X10187443Y-15072627D01*
X10187443Y-15072627D02*
X10187443Y-15177389D01*
X10282681Y-15177389D02*
X10282681Y-15044055D01*
X10282681Y-15063103D02*
X10292205Y-15053579D01*
X10292205Y-15053579D02*
X10311253Y-15044055D01*
X10311253Y-15044055D02*
X10339824Y-15044055D01*
X10339824Y-15044055D02*
X10358872Y-15053579D01*
X10358872Y-15053579D02*
X10368396Y-15072627D01*
X10368396Y-15072627D02*
X10368396Y-15177389D01*
X10368396Y-15072627D02*
X10377920Y-15053579D01*
X10377920Y-15053579D02*
X10396967Y-15044055D01*
X10396967Y-15044055D02*
X10425539Y-15044055D01*
X10425539Y-15044055D02*
X10444586Y-15053579D01*
X10444586Y-15053579D02*
X10454110Y-15072627D01*
X10454110Y-15072627D02*
X10454110Y-15177389D01*
X10844586Y-14967865D02*
X10673158Y-15225008D01*
X11101729Y-14977389D02*
X11120777Y-14977389D01*
X11120777Y-14977389D02*
X11139824Y-14986913D01*
X11139824Y-14986913D02*
X11149348Y-14996436D01*
X11149348Y-14996436D02*
X11158872Y-15015484D01*
X11158872Y-15015484D02*
X11168396Y-15053579D01*
X11168396Y-15053579D02*
X11168396Y-15101198D01*
X11168396Y-15101198D02*
X11158872Y-15139293D01*
X11158872Y-15139293D02*
X11149348Y-15158341D01*
X11149348Y-15158341D02*
X11139824Y-15167865D01*
X11139824Y-15167865D02*
X11120777Y-15177389D01*
X11120777Y-15177389D02*
X11101729Y-15177389D01*
X11101729Y-15177389D02*
X11082682Y-15167865D01*
X11082682Y-15167865D02*
X11073158Y-15158341D01*
X11073158Y-15158341D02*
X11063634Y-15139293D01*
X11063634Y-15139293D02*
X11054110Y-15101198D01*
X11054110Y-15101198D02*
X11054110Y-15053579D01*
X11054110Y-15053579D02*
X11063634Y-15015484D01*
X11063634Y-15015484D02*
X11073158Y-14996436D01*
X11073158Y-14996436D02*
X11082682Y-14986913D01*
X11082682Y-14986913D02*
X11101729Y-14977389D01*
X11254110Y-15158341D02*
X11263634Y-15167865D01*
X11263634Y-15167865D02*
X11254110Y-15177389D01*
X11254110Y-15177389D02*
X11244586Y-15167865D01*
X11244586Y-15167865D02*
X11254110Y-15158341D01*
X11254110Y-15158341D02*
X11254110Y-15177389D01*
X11387443Y-14977389D02*
X11406491Y-14977389D01*
X11406491Y-14977389D02*
X11425539Y-14986913D01*
X11425539Y-14986913D02*
X11435062Y-14996436D01*
X11435062Y-14996436D02*
X11444586Y-15015484D01*
X11444586Y-15015484D02*
X11454110Y-15053579D01*
X11454110Y-15053579D02*
X11454110Y-15101198D01*
X11454110Y-15101198D02*
X11444586Y-15139293D01*
X11444586Y-15139293D02*
X11435062Y-15158341D01*
X11435062Y-15158341D02*
X11425539Y-15167865D01*
X11425539Y-15167865D02*
X11406491Y-15177389D01*
X11406491Y-15177389D02*
X11387443Y-15177389D01*
X11387443Y-15177389D02*
X11368396Y-15167865D01*
X11368396Y-15167865D02*
X11358872Y-15158341D01*
X11358872Y-15158341D02*
X11349348Y-15139293D01*
X11349348Y-15139293D02*
X11339824Y-15101198D01*
X11339824Y-15101198D02*
X11339824Y-15053579D01*
X11339824Y-15053579D02*
X11349348Y-15015484D01*
X11349348Y-15015484D02*
X11358872Y-14996436D01*
X11358872Y-14996436D02*
X11368396Y-14986913D01*
X11368396Y-14986913D02*
X11387443Y-14977389D01*
X11520777Y-14977389D02*
X11644586Y-14977389D01*
X11644586Y-14977389D02*
X11577920Y-15053579D01*
X11577920Y-15053579D02*
X11606491Y-15053579D01*
X11606491Y-15053579D02*
X11625539Y-15063103D01*
X11625539Y-15063103D02*
X11635062Y-15072627D01*
X11635062Y-15072627D02*
X11644586Y-15091674D01*
X11644586Y-15091674D02*
X11644586Y-15139293D01*
X11644586Y-15139293D02*
X11635062Y-15158341D01*
X11635062Y-15158341D02*
X11625539Y-15167865D01*
X11625539Y-15167865D02*
X11606491Y-15177389D01*
X11606491Y-15177389D02*
X11549348Y-15177389D01*
X11549348Y-15177389D02*
X11530301Y-15167865D01*
X11530301Y-15167865D02*
X11520777Y-15158341D01*
X11739824Y-15177389D02*
X11777920Y-15177389D01*
X11777920Y-15177389D02*
X11796967Y-15167865D01*
X11796967Y-15167865D02*
X11806491Y-15158341D01*
X11806491Y-15158341D02*
X11825539Y-15129770D01*
X11825539Y-15129770D02*
X11835062Y-15091674D01*
X11835062Y-15091674D02*
X11835062Y-15015484D01*
X11835062Y-15015484D02*
X11825539Y-14996436D01*
X11825539Y-14996436D02*
X11816015Y-14986913D01*
X11816015Y-14986913D02*
X11796967Y-14977389D01*
X11796967Y-14977389D02*
X11758872Y-14977389D01*
X11758872Y-14977389D02*
X11739824Y-14986913D01*
X11739824Y-14986913D02*
X11730301Y-14996436D01*
X11730301Y-14996436D02*
X11720777Y-15015484D01*
X11720777Y-15015484D02*
X11720777Y-15063103D01*
X11720777Y-15063103D02*
X11730301Y-15082151D01*
X11730301Y-15082151D02*
X11739824Y-15091674D01*
X11739824Y-15091674D02*
X11758872Y-15101198D01*
X11758872Y-15101198D02*
X11796967Y-15101198D01*
X11796967Y-15101198D02*
X11816015Y-15091674D01*
X11816015Y-15091674D02*
X11825539Y-15082151D01*
X11825539Y-15082151D02*
X11835062Y-15063103D01*
X12006491Y-15044055D02*
X12006491Y-15177389D01*
X11958872Y-14967865D02*
X11911253Y-15110722D01*
X11911253Y-15110722D02*
X12035062Y-15110722D01*
X12101729Y-14977389D02*
X12101729Y-15015484D01*
X12177920Y-14977389D02*
X12177920Y-15015484D01*
X12473158Y-15253579D02*
X12463634Y-15244055D01*
X12463634Y-15244055D02*
X12444586Y-15215484D01*
X12444586Y-15215484D02*
X12435063Y-15196436D01*
X12435063Y-15196436D02*
X12425539Y-15167865D01*
X12425539Y-15167865D02*
X12416015Y-15120246D01*
X12416015Y-15120246D02*
X12416015Y-15082151D01*
X12416015Y-15082151D02*
X12425539Y-15034532D01*
X12425539Y-15034532D02*
X12435063Y-15005960D01*
X12435063Y-15005960D02*
X12444586Y-14986913D01*
X12444586Y-14986913D02*
X12463634Y-14958341D01*
X12463634Y-14958341D02*
X12473158Y-14948817D01*
X12530301Y-14977389D02*
X12663634Y-14977389D01*
X12663634Y-14977389D02*
X12577920Y-15177389D01*
X12892205Y-15177389D02*
X12892205Y-14977389D01*
X12977920Y-15177389D02*
X12977920Y-15072627D01*
X12977920Y-15072627D02*
X12968396Y-15053579D01*
X12968396Y-15053579D02*
X12949348Y-15044055D01*
X12949348Y-15044055D02*
X12920777Y-15044055D01*
X12920777Y-15044055D02*
X12901729Y-15053579D01*
X12901729Y-15053579D02*
X12892205Y-15063103D01*
X13101729Y-15177389D02*
X13082682Y-15167865D01*
X13082682Y-15167865D02*
X13073158Y-15158341D01*
X13073158Y-15158341D02*
X13063634Y-15139293D01*
X13063634Y-15139293D02*
X13063634Y-15082151D01*
X13063634Y-15082151D02*
X13073158Y-15063103D01*
X13073158Y-15063103D02*
X13082682Y-15053579D01*
X13082682Y-15053579D02*
X13101729Y-15044055D01*
X13101729Y-15044055D02*
X13130301Y-15044055D01*
X13130301Y-15044055D02*
X13149348Y-15053579D01*
X13149348Y-15053579D02*
X13158872Y-15063103D01*
X13158872Y-15063103D02*
X13168396Y-15082151D01*
X13168396Y-15082151D02*
X13168396Y-15139293D01*
X13168396Y-15139293D02*
X13158872Y-15158341D01*
X13158872Y-15158341D02*
X13149348Y-15167865D01*
X13149348Y-15167865D02*
X13130301Y-15177389D01*
X13130301Y-15177389D02*
X13101729Y-15177389D01*
X13282682Y-15177389D02*
X13263634Y-15167865D01*
X13263634Y-15167865D02*
X13254110Y-15148817D01*
X13254110Y-15148817D02*
X13254110Y-14977389D01*
X13435063Y-15167865D02*
X13416015Y-15177389D01*
X13416015Y-15177389D02*
X13377920Y-15177389D01*
X13377920Y-15177389D02*
X13358872Y-15167865D01*
X13358872Y-15167865D02*
X13349348Y-15148817D01*
X13349348Y-15148817D02*
X13349348Y-15072627D01*
X13349348Y-15072627D02*
X13358872Y-15053579D01*
X13358872Y-15053579D02*
X13377920Y-15044055D01*
X13377920Y-15044055D02*
X13416015Y-15044055D01*
X13416015Y-15044055D02*
X13435063Y-15053579D01*
X13435063Y-15053579D02*
X13444586Y-15072627D01*
X13444586Y-15072627D02*
X13444586Y-15091674D01*
X13444586Y-15091674D02*
X13349348Y-15110722D01*
X13520777Y-15167865D02*
X13539825Y-15177389D01*
X13539825Y-15177389D02*
X13577920Y-15177389D01*
X13577920Y-15177389D02*
X13596967Y-15167865D01*
X13596967Y-15167865D02*
X13606491Y-15148817D01*
X13606491Y-15148817D02*
X13606491Y-15139293D01*
X13606491Y-15139293D02*
X13596967Y-15120246D01*
X13596967Y-15120246D02*
X13577920Y-15110722D01*
X13577920Y-15110722D02*
X13549348Y-15110722D01*
X13549348Y-15110722D02*
X13530301Y-15101198D01*
X13530301Y-15101198D02*
X13520777Y-15082151D01*
X13520777Y-15082151D02*
X13520777Y-15072627D01*
X13520777Y-15072627D02*
X13530301Y-15053579D01*
X13530301Y-15053579D02*
X13549348Y-15044055D01*
X13549348Y-15044055D02*
X13577920Y-15044055D01*
X13577920Y-15044055D02*
X13596967Y-15053579D01*
X13673158Y-15253579D02*
X13682682Y-15244055D01*
X13682682Y-15244055D02*
X13701729Y-15215484D01*
X13701729Y-15215484D02*
X13711253Y-15196436D01*
X13711253Y-15196436D02*
X13720777Y-15167865D01*
X13720777Y-15167865D02*
X13730301Y-15120246D01*
X13730301Y-15120246D02*
X13730301Y-15082151D01*
X13730301Y-15082151D02*
X13720777Y-15034532D01*
X13720777Y-15034532D02*
X13711253Y-15005960D01*
X13711253Y-15005960D02*
X13701729Y-14986913D01*
X13701729Y-14986913D02*
X13682682Y-14958341D01*
X13682682Y-14958341D02*
X13673158Y-14948817D01*
D13*
X8838095Y-15289905D02*
X8838095Y-15409905D01*
X8778095Y-15349905D02*
X8898095Y-15349905D01*
D11*
X9263634Y-15441389D02*
X9149348Y-15441389D01*
X9206491Y-15441389D02*
X9206491Y-15241389D01*
X9206491Y-15241389D02*
X9187443Y-15269960D01*
X9187443Y-15269960D02*
X9168396Y-15289008D01*
X9168396Y-15289008D02*
X9149348Y-15298532D01*
X9349348Y-15422341D02*
X9358872Y-15431865D01*
X9358872Y-15431865D02*
X9349348Y-15441389D01*
X9349348Y-15441389D02*
X9339824Y-15431865D01*
X9339824Y-15431865D02*
X9349348Y-15422341D01*
X9349348Y-15422341D02*
X9349348Y-15441389D01*
X9435062Y-15260436D02*
X9444586Y-15250913D01*
X9444586Y-15250913D02*
X9463634Y-15241389D01*
X9463634Y-15241389D02*
X9511253Y-15241389D01*
X9511253Y-15241389D02*
X9530300Y-15250913D01*
X9530300Y-15250913D02*
X9539824Y-15260436D01*
X9539824Y-15260436D02*
X9549348Y-15279484D01*
X9549348Y-15279484D02*
X9549348Y-15298532D01*
X9549348Y-15298532D02*
X9539824Y-15327103D01*
X9539824Y-15327103D02*
X9425539Y-15441389D01*
X9425539Y-15441389D02*
X9549348Y-15441389D01*
X9673158Y-15241389D02*
X9692205Y-15241389D01*
X9692205Y-15241389D02*
X9711253Y-15250913D01*
X9711253Y-15250913D02*
X9720777Y-15260436D01*
X9720777Y-15260436D02*
X9730300Y-15279484D01*
X9730300Y-15279484D02*
X9739824Y-15317579D01*
X9739824Y-15317579D02*
X9739824Y-15365198D01*
X9739824Y-15365198D02*
X9730300Y-15403293D01*
X9730300Y-15403293D02*
X9720777Y-15422341D01*
X9720777Y-15422341D02*
X9711253Y-15431865D01*
X9711253Y-15431865D02*
X9692205Y-15441389D01*
X9692205Y-15441389D02*
X9673158Y-15441389D01*
X9673158Y-15441389D02*
X9654110Y-15431865D01*
X9654110Y-15431865D02*
X9644586Y-15422341D01*
X9644586Y-15422341D02*
X9635062Y-15403293D01*
X9635062Y-15403293D02*
X9625539Y-15365198D01*
X9625539Y-15365198D02*
X9625539Y-15317579D01*
X9625539Y-15317579D02*
X9635062Y-15279484D01*
X9635062Y-15279484D02*
X9644586Y-15260436D01*
X9644586Y-15260436D02*
X9654110Y-15250913D01*
X9654110Y-15250913D02*
X9673158Y-15241389D01*
X9863634Y-15241389D02*
X9882681Y-15241389D01*
X9882681Y-15241389D02*
X9901729Y-15250913D01*
X9901729Y-15250913D02*
X9911253Y-15260436D01*
X9911253Y-15260436D02*
X9920777Y-15279484D01*
X9920777Y-15279484D02*
X9930300Y-15317579D01*
X9930300Y-15317579D02*
X9930300Y-15365198D01*
X9930300Y-15365198D02*
X9920777Y-15403293D01*
X9920777Y-15403293D02*
X9911253Y-15422341D01*
X9911253Y-15422341D02*
X9901729Y-15431865D01*
X9901729Y-15431865D02*
X9882681Y-15441389D01*
X9882681Y-15441389D02*
X9863634Y-15441389D01*
X9863634Y-15441389D02*
X9844586Y-15431865D01*
X9844586Y-15431865D02*
X9835062Y-15422341D01*
X9835062Y-15422341D02*
X9825539Y-15403293D01*
X9825539Y-15403293D02*
X9816015Y-15365198D01*
X9816015Y-15365198D02*
X9816015Y-15317579D01*
X9816015Y-15317579D02*
X9825539Y-15279484D01*
X9825539Y-15279484D02*
X9835062Y-15260436D01*
X9835062Y-15260436D02*
X9844586Y-15250913D01*
X9844586Y-15250913D02*
X9863634Y-15241389D01*
X10016015Y-15441389D02*
X10016015Y-15308055D01*
X10016015Y-15327103D02*
X10025539Y-15317579D01*
X10025539Y-15317579D02*
X10044586Y-15308055D01*
X10044586Y-15308055D02*
X10073158Y-15308055D01*
X10073158Y-15308055D02*
X10092205Y-15317579D01*
X10092205Y-15317579D02*
X10101729Y-15336627D01*
X10101729Y-15336627D02*
X10101729Y-15441389D01*
X10101729Y-15336627D02*
X10111253Y-15317579D01*
X10111253Y-15317579D02*
X10130300Y-15308055D01*
X10130300Y-15308055D02*
X10158872Y-15308055D01*
X10158872Y-15308055D02*
X10177920Y-15317579D01*
X10177920Y-15317579D02*
X10187443Y-15336627D01*
X10187443Y-15336627D02*
X10187443Y-15441389D01*
X10282681Y-15441389D02*
X10282681Y-15308055D01*
X10282681Y-15327103D02*
X10292205Y-15317579D01*
X10292205Y-15317579D02*
X10311253Y-15308055D01*
X10311253Y-15308055D02*
X10339824Y-15308055D01*
X10339824Y-15308055D02*
X10358872Y-15317579D01*
X10358872Y-15317579D02*
X10368396Y-15336627D01*
X10368396Y-15336627D02*
X10368396Y-15441389D01*
X10368396Y-15336627D02*
X10377920Y-15317579D01*
X10377920Y-15317579D02*
X10396967Y-15308055D01*
X10396967Y-15308055D02*
X10425539Y-15308055D01*
X10425539Y-15308055D02*
X10444586Y-15317579D01*
X10444586Y-15317579D02*
X10454110Y-15336627D01*
X10454110Y-15336627D02*
X10454110Y-15441389D01*
X10844586Y-15231865D02*
X10673158Y-15489008D01*
X11101729Y-15241389D02*
X11120777Y-15241389D01*
X11120777Y-15241389D02*
X11139824Y-15250913D01*
X11139824Y-15250913D02*
X11149348Y-15260436D01*
X11149348Y-15260436D02*
X11158872Y-15279484D01*
X11158872Y-15279484D02*
X11168396Y-15317579D01*
X11168396Y-15317579D02*
X11168396Y-15365198D01*
X11168396Y-15365198D02*
X11158872Y-15403293D01*
X11158872Y-15403293D02*
X11149348Y-15422341D01*
X11149348Y-15422341D02*
X11139824Y-15431865D01*
X11139824Y-15431865D02*
X11120777Y-15441389D01*
X11120777Y-15441389D02*
X11101729Y-15441389D01*
X11101729Y-15441389D02*
X11082682Y-15431865D01*
X11082682Y-15431865D02*
X11073158Y-15422341D01*
X11073158Y-15422341D02*
X11063634Y-15403293D01*
X11063634Y-15403293D02*
X11054110Y-15365198D01*
X11054110Y-15365198D02*
X11054110Y-15317579D01*
X11054110Y-15317579D02*
X11063634Y-15279484D01*
X11063634Y-15279484D02*
X11073158Y-15260436D01*
X11073158Y-15260436D02*
X11082682Y-15250913D01*
X11082682Y-15250913D02*
X11101729Y-15241389D01*
X11254110Y-15422341D02*
X11263634Y-15431865D01*
X11263634Y-15431865D02*
X11254110Y-15441389D01*
X11254110Y-15441389D02*
X11244586Y-15431865D01*
X11244586Y-15431865D02*
X11254110Y-15422341D01*
X11254110Y-15422341D02*
X11254110Y-15441389D01*
X11387443Y-15241389D02*
X11406491Y-15241389D01*
X11406491Y-15241389D02*
X11425539Y-15250913D01*
X11425539Y-15250913D02*
X11435062Y-15260436D01*
X11435062Y-15260436D02*
X11444586Y-15279484D01*
X11444586Y-15279484D02*
X11454110Y-15317579D01*
X11454110Y-15317579D02*
X11454110Y-15365198D01*
X11454110Y-15365198D02*
X11444586Y-15403293D01*
X11444586Y-15403293D02*
X11435062Y-15422341D01*
X11435062Y-15422341D02*
X11425539Y-15431865D01*
X11425539Y-15431865D02*
X11406491Y-15441389D01*
X11406491Y-15441389D02*
X11387443Y-15441389D01*
X11387443Y-15441389D02*
X11368396Y-15431865D01*
X11368396Y-15431865D02*
X11358872Y-15422341D01*
X11358872Y-15422341D02*
X11349348Y-15403293D01*
X11349348Y-15403293D02*
X11339824Y-15365198D01*
X11339824Y-15365198D02*
X11339824Y-15317579D01*
X11339824Y-15317579D02*
X11349348Y-15279484D01*
X11349348Y-15279484D02*
X11358872Y-15260436D01*
X11358872Y-15260436D02*
X11368396Y-15250913D01*
X11368396Y-15250913D02*
X11387443Y-15241389D01*
X11625539Y-15308055D02*
X11625539Y-15441389D01*
X11577920Y-15231865D02*
X11530301Y-15374722D01*
X11530301Y-15374722D02*
X11654110Y-15374722D01*
X11711253Y-15241389D02*
X11844586Y-15241389D01*
X11844586Y-15241389D02*
X11758872Y-15441389D01*
X11911253Y-15260436D02*
X11920777Y-15250913D01*
X11920777Y-15250913D02*
X11939824Y-15241389D01*
X11939824Y-15241389D02*
X11987443Y-15241389D01*
X11987443Y-15241389D02*
X12006491Y-15250913D01*
X12006491Y-15250913D02*
X12016015Y-15260436D01*
X12016015Y-15260436D02*
X12025539Y-15279484D01*
X12025539Y-15279484D02*
X12025539Y-15298532D01*
X12025539Y-15298532D02*
X12016015Y-15327103D01*
X12016015Y-15327103D02*
X11901729Y-15441389D01*
X11901729Y-15441389D02*
X12025539Y-15441389D01*
X12101729Y-15241389D02*
X12101729Y-15279484D01*
X12177920Y-15241389D02*
X12177920Y-15279484D01*
X12473158Y-15517579D02*
X12463634Y-15508055D01*
X12463634Y-15508055D02*
X12444586Y-15479484D01*
X12444586Y-15479484D02*
X12435063Y-15460436D01*
X12435063Y-15460436D02*
X12425539Y-15431865D01*
X12425539Y-15431865D02*
X12416015Y-15384246D01*
X12416015Y-15384246D02*
X12416015Y-15346151D01*
X12416015Y-15346151D02*
X12425539Y-15298532D01*
X12425539Y-15298532D02*
X12435063Y-15269960D01*
X12435063Y-15269960D02*
X12444586Y-15250913D01*
X12444586Y-15250913D02*
X12463634Y-15222341D01*
X12463634Y-15222341D02*
X12473158Y-15212817D01*
X12587443Y-15241389D02*
X12606491Y-15241389D01*
X12606491Y-15241389D02*
X12625539Y-15250913D01*
X12625539Y-15250913D02*
X12635063Y-15260436D01*
X12635063Y-15260436D02*
X12644586Y-15279484D01*
X12644586Y-15279484D02*
X12654110Y-15317579D01*
X12654110Y-15317579D02*
X12654110Y-15365198D01*
X12654110Y-15365198D02*
X12644586Y-15403293D01*
X12644586Y-15403293D02*
X12635063Y-15422341D01*
X12635063Y-15422341D02*
X12625539Y-15431865D01*
X12625539Y-15431865D02*
X12606491Y-15441389D01*
X12606491Y-15441389D02*
X12587443Y-15441389D01*
X12587443Y-15441389D02*
X12568396Y-15431865D01*
X12568396Y-15431865D02*
X12558872Y-15422341D01*
X12558872Y-15422341D02*
X12549348Y-15403293D01*
X12549348Y-15403293D02*
X12539824Y-15365198D01*
X12539824Y-15365198D02*
X12539824Y-15317579D01*
X12539824Y-15317579D02*
X12549348Y-15279484D01*
X12549348Y-15279484D02*
X12558872Y-15260436D01*
X12558872Y-15260436D02*
X12568396Y-15250913D01*
X12568396Y-15250913D02*
X12587443Y-15241389D01*
X12892205Y-15441389D02*
X12892205Y-15241389D01*
X12977920Y-15441389D02*
X12977920Y-15336627D01*
X12977920Y-15336627D02*
X12968396Y-15317579D01*
X12968396Y-15317579D02*
X12949348Y-15308055D01*
X12949348Y-15308055D02*
X12920777Y-15308055D01*
X12920777Y-15308055D02*
X12901729Y-15317579D01*
X12901729Y-15317579D02*
X12892205Y-15327103D01*
X13101729Y-15441389D02*
X13082682Y-15431865D01*
X13082682Y-15431865D02*
X13073158Y-15422341D01*
X13073158Y-15422341D02*
X13063634Y-15403293D01*
X13063634Y-15403293D02*
X13063634Y-15346151D01*
X13063634Y-15346151D02*
X13073158Y-15327103D01*
X13073158Y-15327103D02*
X13082682Y-15317579D01*
X13082682Y-15317579D02*
X13101729Y-15308055D01*
X13101729Y-15308055D02*
X13130301Y-15308055D01*
X13130301Y-15308055D02*
X13149348Y-15317579D01*
X13149348Y-15317579D02*
X13158872Y-15327103D01*
X13158872Y-15327103D02*
X13168396Y-15346151D01*
X13168396Y-15346151D02*
X13168396Y-15403293D01*
X13168396Y-15403293D02*
X13158872Y-15422341D01*
X13158872Y-15422341D02*
X13149348Y-15431865D01*
X13149348Y-15431865D02*
X13130301Y-15441389D01*
X13130301Y-15441389D02*
X13101729Y-15441389D01*
X13282682Y-15441389D02*
X13263634Y-15431865D01*
X13263634Y-15431865D02*
X13254110Y-15412817D01*
X13254110Y-15412817D02*
X13254110Y-15241389D01*
X13435063Y-15431865D02*
X13416015Y-15441389D01*
X13416015Y-15441389D02*
X13377920Y-15441389D01*
X13377920Y-15441389D02*
X13358872Y-15431865D01*
X13358872Y-15431865D02*
X13349348Y-15412817D01*
X13349348Y-15412817D02*
X13349348Y-15336627D01*
X13349348Y-15336627D02*
X13358872Y-15317579D01*
X13358872Y-15317579D02*
X13377920Y-15308055D01*
X13377920Y-15308055D02*
X13416015Y-15308055D01*
X13416015Y-15308055D02*
X13435063Y-15317579D01*
X13435063Y-15317579D02*
X13444586Y-15336627D01*
X13444586Y-15336627D02*
X13444586Y-15355674D01*
X13444586Y-15355674D02*
X13349348Y-15374722D01*
X13520777Y-15431865D02*
X13539825Y-15441389D01*
X13539825Y-15441389D02*
X13577920Y-15441389D01*
X13577920Y-15441389D02*
X13596967Y-15431865D01*
X13596967Y-15431865D02*
X13606491Y-15412817D01*
X13606491Y-15412817D02*
X13606491Y-15403293D01*
X13606491Y-15403293D02*
X13596967Y-15384246D01*
X13596967Y-15384246D02*
X13577920Y-15374722D01*
X13577920Y-15374722D02*
X13549348Y-15374722D01*
X13549348Y-15374722D02*
X13530301Y-15365198D01*
X13530301Y-15365198D02*
X13520777Y-15346151D01*
X13520777Y-15346151D02*
X13520777Y-15336627D01*
X13520777Y-15336627D02*
X13530301Y-15317579D01*
X13530301Y-15317579D02*
X13549348Y-15308055D01*
X13549348Y-15308055D02*
X13577920Y-15308055D01*
X13577920Y-15308055D02*
X13596967Y-15317579D01*
X13844587Y-15365198D02*
X13996968Y-15365198D01*
X13920777Y-15441389D02*
X13920777Y-15289008D01*
X14235063Y-15260436D02*
X14244587Y-15250913D01*
X14244587Y-15250913D02*
X14263634Y-15241389D01*
X14263634Y-15241389D02*
X14311253Y-15241389D01*
X14311253Y-15241389D02*
X14330301Y-15250913D01*
X14330301Y-15250913D02*
X14339825Y-15260436D01*
X14339825Y-15260436D02*
X14349348Y-15279484D01*
X14349348Y-15279484D02*
X14349348Y-15298532D01*
X14349348Y-15298532D02*
X14339825Y-15327103D01*
X14339825Y-15327103D02*
X14225539Y-15441389D01*
X14225539Y-15441389D02*
X14349348Y-15441389D01*
X14577920Y-15431865D02*
X14596968Y-15441389D01*
X14596968Y-15441389D02*
X14635063Y-15441389D01*
X14635063Y-15441389D02*
X14654110Y-15431865D01*
X14654110Y-15431865D02*
X14663634Y-15412817D01*
X14663634Y-15412817D02*
X14663634Y-15403293D01*
X14663634Y-15403293D02*
X14654110Y-15384246D01*
X14654110Y-15384246D02*
X14635063Y-15374722D01*
X14635063Y-15374722D02*
X14606491Y-15374722D01*
X14606491Y-15374722D02*
X14587444Y-15365198D01*
X14587444Y-15365198D02*
X14577920Y-15346151D01*
X14577920Y-15346151D02*
X14577920Y-15336627D01*
X14577920Y-15336627D02*
X14587444Y-15317579D01*
X14587444Y-15317579D02*
X14606491Y-15308055D01*
X14606491Y-15308055D02*
X14635063Y-15308055D01*
X14635063Y-15308055D02*
X14654110Y-15317579D01*
X14777920Y-15441389D02*
X14758872Y-15431865D01*
X14758872Y-15431865D02*
X14749349Y-15412817D01*
X14749349Y-15412817D02*
X14749349Y-15241389D01*
X14882682Y-15441389D02*
X14863634Y-15431865D01*
X14863634Y-15431865D02*
X14854110Y-15422341D01*
X14854110Y-15422341D02*
X14844587Y-15403293D01*
X14844587Y-15403293D02*
X14844587Y-15346151D01*
X14844587Y-15346151D02*
X14854110Y-15327103D01*
X14854110Y-15327103D02*
X14863634Y-15317579D01*
X14863634Y-15317579D02*
X14882682Y-15308055D01*
X14882682Y-15308055D02*
X14911253Y-15308055D01*
X14911253Y-15308055D02*
X14930301Y-15317579D01*
X14930301Y-15317579D02*
X14939825Y-15327103D01*
X14939825Y-15327103D02*
X14949349Y-15346151D01*
X14949349Y-15346151D02*
X14949349Y-15403293D01*
X14949349Y-15403293D02*
X14939825Y-15422341D01*
X14939825Y-15422341D02*
X14930301Y-15431865D01*
X14930301Y-15431865D02*
X14911253Y-15441389D01*
X14911253Y-15441389D02*
X14882682Y-15441389D01*
X15006491Y-15308055D02*
X15082682Y-15308055D01*
X15035063Y-15241389D02*
X15035063Y-15412817D01*
X15035063Y-15412817D02*
X15044587Y-15431865D01*
X15044587Y-15431865D02*
X15063634Y-15441389D01*
X15063634Y-15441389D02*
X15082682Y-15441389D01*
X15139825Y-15431865D02*
X15158872Y-15441389D01*
X15158872Y-15441389D02*
X15196968Y-15441389D01*
X15196968Y-15441389D02*
X15216015Y-15431865D01*
X15216015Y-15431865D02*
X15225539Y-15412817D01*
X15225539Y-15412817D02*
X15225539Y-15403293D01*
X15225539Y-15403293D02*
X15216015Y-15384246D01*
X15216015Y-15384246D02*
X15196968Y-15374722D01*
X15196968Y-15374722D02*
X15168396Y-15374722D01*
X15168396Y-15374722D02*
X15149349Y-15365198D01*
X15149349Y-15365198D02*
X15139825Y-15346151D01*
X15139825Y-15346151D02*
X15139825Y-15336627D01*
X15139825Y-15336627D02*
X15149349Y-15317579D01*
X15149349Y-15317579D02*
X15168396Y-15308055D01*
X15168396Y-15308055D02*
X15196968Y-15308055D01*
X15196968Y-15308055D02*
X15216015Y-15317579D01*
X15292206Y-15517579D02*
X15301730Y-15508055D01*
X15301730Y-15508055D02*
X15320777Y-15479484D01*
X15320777Y-15479484D02*
X15330301Y-15460436D01*
X15330301Y-15460436D02*
X15339825Y-15431865D01*
X15339825Y-15431865D02*
X15349349Y-15384246D01*
X15349349Y-15384246D02*
X15349349Y-15346151D01*
X15349349Y-15346151D02*
X15339825Y-15298532D01*
X15339825Y-15298532D02*
X15330301Y-15269960D01*
X15330301Y-15269960D02*
X15320777Y-15250913D01*
X15320777Y-15250913D02*
X15301730Y-15222341D01*
X15301730Y-15222341D02*
X15292206Y-15212817D01*
D14*
X8877593Y-15663403D02*
X8877593Y-15564407D01*
X8778597Y-15564407D01*
X8778597Y-15663403D01*
X8877593Y-15663403D01*
D11*
X9263634Y-15705389D02*
X9149348Y-15705389D01*
X9206491Y-15705389D02*
X9206491Y-15505389D01*
X9206491Y-15505389D02*
X9187443Y-15533960D01*
X9187443Y-15533960D02*
X9168396Y-15553008D01*
X9168396Y-15553008D02*
X9149348Y-15562532D01*
X9349348Y-15686341D02*
X9358872Y-15695865D01*
X9358872Y-15695865D02*
X9349348Y-15705389D01*
X9349348Y-15705389D02*
X9339824Y-15695865D01*
X9339824Y-15695865D02*
X9349348Y-15686341D01*
X9349348Y-15686341D02*
X9349348Y-15705389D01*
X9530300Y-15572055D02*
X9530300Y-15705389D01*
X9482681Y-15495865D02*
X9435062Y-15638722D01*
X9435062Y-15638722D02*
X9558872Y-15638722D01*
X9673158Y-15505389D02*
X9692205Y-15505389D01*
X9692205Y-15505389D02*
X9711253Y-15514913D01*
X9711253Y-15514913D02*
X9720777Y-15524436D01*
X9720777Y-15524436D02*
X9730300Y-15543484D01*
X9730300Y-15543484D02*
X9739824Y-15581579D01*
X9739824Y-15581579D02*
X9739824Y-15629198D01*
X9739824Y-15629198D02*
X9730300Y-15667293D01*
X9730300Y-15667293D02*
X9720777Y-15686341D01*
X9720777Y-15686341D02*
X9711253Y-15695865D01*
X9711253Y-15695865D02*
X9692205Y-15705389D01*
X9692205Y-15705389D02*
X9673158Y-15705389D01*
X9673158Y-15705389D02*
X9654110Y-15695865D01*
X9654110Y-15695865D02*
X9644586Y-15686341D01*
X9644586Y-15686341D02*
X9635062Y-15667293D01*
X9635062Y-15667293D02*
X9625539Y-15629198D01*
X9625539Y-15629198D02*
X9625539Y-15581579D01*
X9625539Y-15581579D02*
X9635062Y-15543484D01*
X9635062Y-15543484D02*
X9644586Y-15524436D01*
X9644586Y-15524436D02*
X9654110Y-15514913D01*
X9654110Y-15514913D02*
X9673158Y-15505389D01*
X9863634Y-15505389D02*
X9882681Y-15505389D01*
X9882681Y-15505389D02*
X9901729Y-15514913D01*
X9901729Y-15514913D02*
X9911253Y-15524436D01*
X9911253Y-15524436D02*
X9920777Y-15543484D01*
X9920777Y-15543484D02*
X9930300Y-15581579D01*
X9930300Y-15581579D02*
X9930300Y-15629198D01*
X9930300Y-15629198D02*
X9920777Y-15667293D01*
X9920777Y-15667293D02*
X9911253Y-15686341D01*
X9911253Y-15686341D02*
X9901729Y-15695865D01*
X9901729Y-15695865D02*
X9882681Y-15705389D01*
X9882681Y-15705389D02*
X9863634Y-15705389D01*
X9863634Y-15705389D02*
X9844586Y-15695865D01*
X9844586Y-15695865D02*
X9835062Y-15686341D01*
X9835062Y-15686341D02*
X9825539Y-15667293D01*
X9825539Y-15667293D02*
X9816015Y-15629198D01*
X9816015Y-15629198D02*
X9816015Y-15581579D01*
X9816015Y-15581579D02*
X9825539Y-15543484D01*
X9825539Y-15543484D02*
X9835062Y-15524436D01*
X9835062Y-15524436D02*
X9844586Y-15514913D01*
X9844586Y-15514913D02*
X9863634Y-15505389D01*
X10016015Y-15705389D02*
X10016015Y-15572055D01*
X10016015Y-15591103D02*
X10025539Y-15581579D01*
X10025539Y-15581579D02*
X10044586Y-15572055D01*
X10044586Y-15572055D02*
X10073158Y-15572055D01*
X10073158Y-15572055D02*
X10092205Y-15581579D01*
X10092205Y-15581579D02*
X10101729Y-15600627D01*
X10101729Y-15600627D02*
X10101729Y-15705389D01*
X10101729Y-15600627D02*
X10111253Y-15581579D01*
X10111253Y-15581579D02*
X10130300Y-15572055D01*
X10130300Y-15572055D02*
X10158872Y-15572055D01*
X10158872Y-15572055D02*
X10177920Y-15581579D01*
X10177920Y-15581579D02*
X10187443Y-15600627D01*
X10187443Y-15600627D02*
X10187443Y-15705389D01*
X10282681Y-15705389D02*
X10282681Y-15572055D01*
X10282681Y-15591103D02*
X10292205Y-15581579D01*
X10292205Y-15581579D02*
X10311253Y-15572055D01*
X10311253Y-15572055D02*
X10339824Y-15572055D01*
X10339824Y-15572055D02*
X10358872Y-15581579D01*
X10358872Y-15581579D02*
X10368396Y-15600627D01*
X10368396Y-15600627D02*
X10368396Y-15705389D01*
X10368396Y-15600627D02*
X10377920Y-15581579D01*
X10377920Y-15581579D02*
X10396967Y-15572055D01*
X10396967Y-15572055D02*
X10425539Y-15572055D01*
X10425539Y-15572055D02*
X10444586Y-15581579D01*
X10444586Y-15581579D02*
X10454110Y-15600627D01*
X10454110Y-15600627D02*
X10454110Y-15705389D01*
X10844586Y-15495865D02*
X10673158Y-15753008D01*
X11101729Y-15505389D02*
X11120777Y-15505389D01*
X11120777Y-15505389D02*
X11139824Y-15514913D01*
X11139824Y-15514913D02*
X11149348Y-15524436D01*
X11149348Y-15524436D02*
X11158872Y-15543484D01*
X11158872Y-15543484D02*
X11168396Y-15581579D01*
X11168396Y-15581579D02*
X11168396Y-15629198D01*
X11168396Y-15629198D02*
X11158872Y-15667293D01*
X11158872Y-15667293D02*
X11149348Y-15686341D01*
X11149348Y-15686341D02*
X11139824Y-15695865D01*
X11139824Y-15695865D02*
X11120777Y-15705389D01*
X11120777Y-15705389D02*
X11101729Y-15705389D01*
X11101729Y-15705389D02*
X11082682Y-15695865D01*
X11082682Y-15695865D02*
X11073158Y-15686341D01*
X11073158Y-15686341D02*
X11063634Y-15667293D01*
X11063634Y-15667293D02*
X11054110Y-15629198D01*
X11054110Y-15629198D02*
X11054110Y-15581579D01*
X11054110Y-15581579D02*
X11063634Y-15543484D01*
X11063634Y-15543484D02*
X11073158Y-15524436D01*
X11073158Y-15524436D02*
X11082682Y-15514913D01*
X11082682Y-15514913D02*
X11101729Y-15505389D01*
X11254110Y-15686341D02*
X11263634Y-15695865D01*
X11263634Y-15695865D02*
X11254110Y-15705389D01*
X11254110Y-15705389D02*
X11244586Y-15695865D01*
X11244586Y-15695865D02*
X11254110Y-15686341D01*
X11254110Y-15686341D02*
X11254110Y-15705389D01*
X11387443Y-15505389D02*
X11406491Y-15505389D01*
X11406491Y-15505389D02*
X11425539Y-15514913D01*
X11425539Y-15514913D02*
X11435062Y-15524436D01*
X11435062Y-15524436D02*
X11444586Y-15543484D01*
X11444586Y-15543484D02*
X11454110Y-15581579D01*
X11454110Y-15581579D02*
X11454110Y-15629198D01*
X11454110Y-15629198D02*
X11444586Y-15667293D01*
X11444586Y-15667293D02*
X11435062Y-15686341D01*
X11435062Y-15686341D02*
X11425539Y-15695865D01*
X11425539Y-15695865D02*
X11406491Y-15705389D01*
X11406491Y-15705389D02*
X11387443Y-15705389D01*
X11387443Y-15705389D02*
X11368396Y-15695865D01*
X11368396Y-15695865D02*
X11358872Y-15686341D01*
X11358872Y-15686341D02*
X11349348Y-15667293D01*
X11349348Y-15667293D02*
X11339824Y-15629198D01*
X11339824Y-15629198D02*
X11339824Y-15581579D01*
X11339824Y-15581579D02*
X11349348Y-15543484D01*
X11349348Y-15543484D02*
X11358872Y-15524436D01*
X11358872Y-15524436D02*
X11368396Y-15514913D01*
X11368396Y-15514913D02*
X11387443Y-15505389D01*
X11635062Y-15505389D02*
X11539824Y-15505389D01*
X11539824Y-15505389D02*
X11530301Y-15600627D01*
X11530301Y-15600627D02*
X11539824Y-15591103D01*
X11539824Y-15591103D02*
X11558872Y-15581579D01*
X11558872Y-15581579D02*
X11606491Y-15581579D01*
X11606491Y-15581579D02*
X11625539Y-15591103D01*
X11625539Y-15591103D02*
X11635062Y-15600627D01*
X11635062Y-15600627D02*
X11644586Y-15619674D01*
X11644586Y-15619674D02*
X11644586Y-15667293D01*
X11644586Y-15667293D02*
X11635062Y-15686341D01*
X11635062Y-15686341D02*
X11625539Y-15695865D01*
X11625539Y-15695865D02*
X11606491Y-15705389D01*
X11606491Y-15705389D02*
X11558872Y-15705389D01*
X11558872Y-15705389D02*
X11539824Y-15695865D01*
X11539824Y-15695865D02*
X11530301Y-15686341D01*
X11825539Y-15505389D02*
X11730301Y-15505389D01*
X11730301Y-15505389D02*
X11720777Y-15600627D01*
X11720777Y-15600627D02*
X11730301Y-15591103D01*
X11730301Y-15591103D02*
X11749348Y-15581579D01*
X11749348Y-15581579D02*
X11796967Y-15581579D01*
X11796967Y-15581579D02*
X11816015Y-15591103D01*
X11816015Y-15591103D02*
X11825539Y-15600627D01*
X11825539Y-15600627D02*
X11835062Y-15619674D01*
X11835062Y-15619674D02*
X11835062Y-15667293D01*
X11835062Y-15667293D02*
X11825539Y-15686341D01*
X11825539Y-15686341D02*
X11816015Y-15695865D01*
X11816015Y-15695865D02*
X11796967Y-15705389D01*
X11796967Y-15705389D02*
X11749348Y-15705389D01*
X11749348Y-15705389D02*
X11730301Y-15695865D01*
X11730301Y-15695865D02*
X11720777Y-15686341D01*
X12025539Y-15705389D02*
X11911253Y-15705389D01*
X11968396Y-15705389D02*
X11968396Y-15505389D01*
X11968396Y-15505389D02*
X11949348Y-15533960D01*
X11949348Y-15533960D02*
X11930301Y-15553008D01*
X11930301Y-15553008D02*
X11911253Y-15562532D01*
X12101729Y-15505389D02*
X12101729Y-15543484D01*
X12177920Y-15505389D02*
X12177920Y-15543484D01*
X12473158Y-15781579D02*
X12463634Y-15772055D01*
X12463634Y-15772055D02*
X12444586Y-15743484D01*
X12444586Y-15743484D02*
X12435063Y-15724436D01*
X12435063Y-15724436D02*
X12425539Y-15695865D01*
X12425539Y-15695865D02*
X12416015Y-15648246D01*
X12416015Y-15648246D02*
X12416015Y-15610151D01*
X12416015Y-15610151D02*
X12425539Y-15562532D01*
X12425539Y-15562532D02*
X12435063Y-15533960D01*
X12435063Y-15533960D02*
X12444586Y-15514913D01*
X12444586Y-15514913D02*
X12463634Y-15486341D01*
X12463634Y-15486341D02*
X12473158Y-15476817D01*
X12635063Y-15572055D02*
X12635063Y-15705389D01*
X12587443Y-15495865D02*
X12539824Y-15638722D01*
X12539824Y-15638722D02*
X12663634Y-15638722D01*
X12892205Y-15705389D02*
X12892205Y-15505389D01*
X12977920Y-15705389D02*
X12977920Y-15600627D01*
X12977920Y-15600627D02*
X12968396Y-15581579D01*
X12968396Y-15581579D02*
X12949348Y-15572055D01*
X12949348Y-15572055D02*
X12920777Y-15572055D01*
X12920777Y-15572055D02*
X12901729Y-15581579D01*
X12901729Y-15581579D02*
X12892205Y-15591103D01*
X13101729Y-15705389D02*
X13082682Y-15695865D01*
X13082682Y-15695865D02*
X13073158Y-15686341D01*
X13073158Y-15686341D02*
X13063634Y-15667293D01*
X13063634Y-15667293D02*
X13063634Y-15610151D01*
X13063634Y-15610151D02*
X13073158Y-15591103D01*
X13073158Y-15591103D02*
X13082682Y-15581579D01*
X13082682Y-15581579D02*
X13101729Y-15572055D01*
X13101729Y-15572055D02*
X13130301Y-15572055D01*
X13130301Y-15572055D02*
X13149348Y-15581579D01*
X13149348Y-15581579D02*
X13158872Y-15591103D01*
X13158872Y-15591103D02*
X13168396Y-15610151D01*
X13168396Y-15610151D02*
X13168396Y-15667293D01*
X13168396Y-15667293D02*
X13158872Y-15686341D01*
X13158872Y-15686341D02*
X13149348Y-15695865D01*
X13149348Y-15695865D02*
X13130301Y-15705389D01*
X13130301Y-15705389D02*
X13101729Y-15705389D01*
X13282682Y-15705389D02*
X13263634Y-15695865D01*
X13263634Y-15695865D02*
X13254110Y-15676817D01*
X13254110Y-15676817D02*
X13254110Y-15505389D01*
X13435063Y-15695865D02*
X13416015Y-15705389D01*
X13416015Y-15705389D02*
X13377920Y-15705389D01*
X13377920Y-15705389D02*
X13358872Y-15695865D01*
X13358872Y-15695865D02*
X13349348Y-15676817D01*
X13349348Y-15676817D02*
X13349348Y-15600627D01*
X13349348Y-15600627D02*
X13358872Y-15581579D01*
X13358872Y-15581579D02*
X13377920Y-15572055D01*
X13377920Y-15572055D02*
X13416015Y-15572055D01*
X13416015Y-15572055D02*
X13435063Y-15581579D01*
X13435063Y-15581579D02*
X13444586Y-15600627D01*
X13444586Y-15600627D02*
X13444586Y-15619674D01*
X13444586Y-15619674D02*
X13349348Y-15638722D01*
X13520777Y-15695865D02*
X13539825Y-15705389D01*
X13539825Y-15705389D02*
X13577920Y-15705389D01*
X13577920Y-15705389D02*
X13596967Y-15695865D01*
X13596967Y-15695865D02*
X13606491Y-15676817D01*
X13606491Y-15676817D02*
X13606491Y-15667293D01*
X13606491Y-15667293D02*
X13596967Y-15648246D01*
X13596967Y-15648246D02*
X13577920Y-15638722D01*
X13577920Y-15638722D02*
X13549348Y-15638722D01*
X13549348Y-15638722D02*
X13530301Y-15629198D01*
X13530301Y-15629198D02*
X13520777Y-15610151D01*
X13520777Y-15610151D02*
X13520777Y-15600627D01*
X13520777Y-15600627D02*
X13530301Y-15581579D01*
X13530301Y-15581579D02*
X13549348Y-15572055D01*
X13549348Y-15572055D02*
X13577920Y-15572055D01*
X13577920Y-15572055D02*
X13596967Y-15581579D01*
X13673158Y-15781579D02*
X13682682Y-15772055D01*
X13682682Y-15772055D02*
X13701729Y-15743484D01*
X13701729Y-15743484D02*
X13711253Y-15724436D01*
X13711253Y-15724436D02*
X13720777Y-15695865D01*
X13720777Y-15695865D02*
X13730301Y-15648246D01*
X13730301Y-15648246D02*
X13730301Y-15610151D01*
X13730301Y-15610151D02*
X13720777Y-15562532D01*
X13720777Y-15562532D02*
X13711253Y-15533960D01*
X13711253Y-15533960D02*
X13701729Y-15514913D01*
X13701729Y-15514913D02*
X13682682Y-15486341D01*
X13682682Y-15486341D02*
X13673158Y-15476817D01*
M02*
