G04 #@! TF.GenerationSoftware,KiCad,Pcbnew,9.0.2*
G04 #@! TF.CreationDate,2025-08-06T23:34:25+02:00*
G04 #@! TF.ProjectId,Moto_HMI_v001,4d6f746f-5f48-44d4-995f-763030312e6b,rev?*
G04 #@! TF.SameCoordinates,Original*
G04 #@! TF.FileFunction,Copper,L4,Bot*
G04 #@! TF.FilePolarity,Positive*
%FSLAX46Y46*%
G04 Gerber Fmt 4.6, Leading zero omitted, Abs format (unit mm)*
G04 Created by KiCad (PCBNEW 9.0.2) date 2025-08-06 23:34:25*
%MOMM*%
%LPD*%
G01*
G04 APERTURE LIST*
G04 Aperture macros list*
%AMRoundRect*
0 Rectangle with rounded corners*
0 $1 Rounding radius*
0 $2 $3 $4 $5 $6 $7 $8 $9 X,Y pos of 4 corners*
0 Add a 4 corners polygon primitive as box body*
4,1,4,$2,$3,$4,$5,$6,$7,$8,$9,$2,$3,0*
0 Add four circle primitives for the rounded corners*
1,1,$1+$1,$2,$3*
1,1,$1+$1,$4,$5*
1,1,$1+$1,$6,$7*
1,1,$1+$1,$8,$9*
0 Add four rect primitives between the rounded corners*
20,1,$1+$1,$2,$3,$4,$5,0*
20,1,$1+$1,$4,$5,$6,$7,0*
20,1,$1+$1,$6,$7,$8,$9,0*
20,1,$1+$1,$8,$9,$2,$3,0*%
G04 Aperture macros list end*
G04 #@! TA.AperFunction,ComponentPad*
%ADD10R,2.100000X2.100000*%
G04 #@! TD*
G04 #@! TA.AperFunction,ComponentPad*
%ADD11C,2.100000*%
G04 #@! TD*
G04 #@! TA.AperFunction,ComponentPad*
%ADD12R,1.700000X1.700000*%
G04 #@! TD*
G04 #@! TA.AperFunction,ComponentPad*
%ADD13C,1.700000*%
G04 #@! TD*
G04 #@! TA.AperFunction,ComponentPad*
%ADD14RoundRect,0.310500X0.839500X-0.939500X0.839500X0.939500X-0.839500X0.939500X-0.839500X-0.939500X0*%
G04 #@! TD*
G04 #@! TA.AperFunction,ComponentPad*
%ADD15C,2.000000*%
G04 #@! TD*
G04 #@! TA.AperFunction,ViaPad*
%ADD16C,0.600000*%
G04 #@! TD*
G04 #@! TA.AperFunction,Conductor*
%ADD17C,0.200000*%
G04 #@! TD*
G04 #@! TA.AperFunction,Conductor*
%ADD18C,0.400000*%
G04 #@! TD*
G04 #@! TA.AperFunction,Conductor*
%ADD19C,0.600000*%
G04 #@! TD*
G04 APERTURE END LIST*
D10*
X143500000Y-59000000D03*
D11*
X148500000Y-59000000D03*
D10*
X160270000Y-59000000D03*
D11*
X165270000Y-59000000D03*
D12*
X102580000Y-58000000D03*
D13*
X105120000Y-58000000D03*
X107660000Y-58000000D03*
X110200000Y-58000000D03*
D14*
X163500000Y-110650000D03*
X163500000Y-99350000D03*
D15*
X171000000Y-107500000D03*
X171000000Y-105000000D03*
X171000000Y-102500000D03*
D16*
X135500000Y-77301000D03*
X177000000Y-78200000D03*
X148000000Y-89000000D03*
X177000000Y-81800000D03*
X136000000Y-80173000D03*
X173500000Y-89000000D03*
X191800000Y-68900000D03*
X125400000Y-54900000D03*
X142600000Y-93300000D03*
X148479958Y-83096337D03*
X140700000Y-85227000D03*
X137200000Y-65900000D03*
X112800000Y-66400000D03*
X138800000Y-60600000D03*
X195900000Y-68800000D03*
X148473000Y-84800396D03*
X113000000Y-58000000D03*
X138500000Y-91941000D03*
X162400000Y-124200000D03*
X146609146Y-93363854D03*
X162400000Y-120900000D03*
X139520042Y-87403663D03*
X139529836Y-89277000D03*
X162400000Y-132300000D03*
X125400000Y-52400000D03*
X138500000Y-93400000D03*
X140200000Y-74300000D03*
X138033000Y-79000000D03*
X124100000Y-63900000D03*
X147300000Y-83700000D03*
X125400000Y-63900000D03*
X156830000Y-88030000D03*
X140740000Y-84173000D03*
X120232212Y-76182788D03*
X140256313Y-89178838D03*
X141285734Y-78108734D03*
X126800000Y-80675000D03*
D17*
X135500000Y-77301000D02*
X136000000Y-77801000D01*
D18*
X177000000Y-78200000D02*
X177000000Y-81800000D01*
D17*
X148000000Y-89000000D02*
X173500000Y-89000000D01*
X136000000Y-77801000D02*
X136000000Y-80173000D01*
X114700000Y-63700000D02*
X114700000Y-64500000D01*
X139529836Y-89277000D02*
X139529836Y-87413457D01*
D19*
X138800000Y-60600000D02*
X137200000Y-62200000D01*
D17*
X191800000Y-68900000D02*
X195800000Y-68900000D01*
X138500000Y-91941000D02*
X138500000Y-93400000D01*
X146609146Y-93363854D02*
X142663854Y-93363854D01*
X142663854Y-93363854D02*
X142600000Y-93300000D01*
X148046396Y-85227000D02*
X148473000Y-84800396D01*
X125400000Y-54900000D02*
X125400000Y-52400000D01*
X140700000Y-85227000D02*
X148046396Y-85227000D01*
X114700000Y-59700000D02*
X114700000Y-63700000D01*
X148473000Y-83103295D02*
X148479958Y-83096337D01*
D19*
X137200000Y-62200000D02*
X137200000Y-65900000D01*
D17*
X148473000Y-84800396D02*
X148473000Y-83103295D01*
X162400000Y-124200000D02*
X162400000Y-132300000D01*
X113000000Y-58000000D02*
X114700000Y-59700000D01*
X162400000Y-120900000D02*
X162400000Y-124200000D01*
X195800000Y-68900000D02*
X195900000Y-68800000D01*
X139529836Y-87413457D02*
X139520042Y-87403663D01*
X114700000Y-64500000D02*
X112800000Y-66400000D01*
X138033000Y-76467000D02*
X140200000Y-74300000D01*
X138033000Y-79000000D02*
X138033000Y-76467000D01*
X126300000Y-84700000D02*
X146300000Y-84700000D01*
X124100000Y-82500000D02*
X126300000Y-84700000D01*
X146300000Y-84700000D02*
X147300000Y-83700000D01*
X124100000Y-63900000D02*
X124100000Y-82500000D01*
X141550000Y-81600000D02*
X140740000Y-82410000D01*
X140740000Y-84300000D02*
X140740000Y-84173000D01*
X156830000Y-88030000D02*
X156250000Y-87450000D01*
X127590000Y-84300000D02*
X140740000Y-84300000D01*
X156250000Y-87450000D02*
X156250000Y-82390000D01*
X155460000Y-81600000D02*
X141550000Y-81600000D01*
X125400000Y-82110000D02*
X127590000Y-84300000D01*
X156250000Y-82390000D02*
X155460000Y-81600000D01*
X140740000Y-82410000D02*
X140740000Y-84173000D01*
X125400000Y-63900000D02*
X125400000Y-82110000D01*
X120232212Y-76182788D02*
X120232212Y-80532212D01*
X124728000Y-85028000D02*
X139628000Y-85028000D01*
X120232212Y-80532212D02*
X124728000Y-85028000D01*
X139628000Y-85028000D02*
X140256313Y-85656313D01*
X140256313Y-85656313D02*
X140256313Y-89178838D01*
X140763799Y-80700000D02*
X126875000Y-80700000D01*
X141285734Y-80178065D02*
X140763799Y-80700000D01*
X126850000Y-80675000D02*
X126800000Y-80675000D01*
X141285734Y-78108734D02*
X141285734Y-80178065D01*
X126875000Y-80700000D02*
X126850000Y-80675000D01*
M02*
